<svg width="58" height="58" viewBox="0 0 58 58" fill="none" xmlns="http://www.w3.org/2000/svg">
<path d="M53.9343 0H4.06568C1.82446 0 0 1.82446 0 4.06568V39.1596C0 41.4008 1.82446 43.2253 4.06568 43.2253H21.2422V49.8717H19.7666C17.5253 49.8717 15.7009 51.6962 15.7009 53.9374V56.7065C15.7009 57.4196 16.2812 58 16.9944 58H41.0056C41.7188 58 42.2991 57.4196 42.2991 56.7065V53.9374C42.2991 51.6962 40.4747 49.8717 38.2334 49.8717H36.7578V43.2253H53.9343C56.1755 43.2253 58 41.4008 58 39.1596V4.06568C58 1.82446 56.1755 0 53.9343 0ZM39.7122 55.413H18.2878V53.9374C18.2878 53.1224 18.9516 52.4618 19.7635 52.4618H38.2334C39.0484 52.4618 39.7091 53.1255 39.7091 53.9374V55.413H39.7122ZM23.8291 49.8717V43.2253H34.1709V49.8717H23.8291ZM55.413 4.06568V39.1596C55.413 39.9746 54.7493 40.6352 53.9374 40.6352H4.06568C3.25069 40.6352 2.59006 39.9715 2.59006 39.1596V4.06568C2.59006 3.25069 3.25378 2.59006 4.06568 2.59006H53.9374C54.7493 2.58697 55.413 3.25069 55.413 4.06568Z" fill="#E8491E"/>
<path d="M53.0113 3.69525H4.98871C4.2756 3.69525 3.69523 4.27562 3.69523 4.98874V34.5413C3.69523 35.2544 4.2756 35.8348 4.98871 35.8348H53.0144C53.7275 35.8348 54.3079 35.2544 54.3079 34.5413V4.98874C54.3079 4.27562 53.7275 3.69525 53.0113 3.69525ZM51.7178 6.28222V33.2478H6.2822V6.28222H51.7178Z" fill="#E8491E"/>
<path d="M54.3048 36.9431H51.7178V39.53H54.3048V36.9431Z" fill="#E8491E"/>
<path d="M50.6126 36.9431H48.0257V39.53H50.6126V36.9431Z" fill="#E8491E"/>
<path d="M8.68086 19.2109H17.9174C18.6305 19.2109 19.2109 18.6305 19.2109 17.9174V8.68088C19.2109 7.96776 18.6305 7.38739 17.9174 7.38739H8.68086C7.96775 7.38739 7.38737 7.96776 7.38737 8.68088V17.9174C7.38737 18.6305 7.96775 19.2109 8.68086 19.2109ZM9.97743 11.0826V9.97745H16.6239V11.0826H9.97743ZM9.97743 16.6239V13.6696H16.6239V16.6239H9.97743Z" fill="#E8491E"/>
<path d="M21.6126 19.2109H30.8492C31.5623 19.2109 32.1426 18.6305 32.1426 17.9174V8.68088C32.1426 7.96776 31.5623 7.38739 30.8492 7.38739H21.6126C20.8995 7.38739 20.3191 7.96776 20.3191 8.68088V17.9174C20.3191 18.6305 20.8995 19.2109 21.6126 19.2109ZM22.9061 11.0826V9.97745H29.5526V11.0826H22.9061ZM22.9061 16.6239V13.6696H29.5526V16.6239H22.9061Z" fill="#E8491E"/>
<path d="M34.5413 19.2109H40.4531V16.6239H35.8348V13.6696H38.6039V11.0826H35.8348V9.97741H37.6809V7.39044H34.5413C33.8282 7.39044 33.2478 7.97081 33.2478 8.68393V17.9205C33.2478 18.6305 33.8282 19.2109 34.5413 19.2109Z" fill="#E8491E"/>
<path d="M8.68086 32.1427H17.9174C18.6305 32.1427 19.2109 31.5623 19.2109 30.8492V21.6126C19.2109 20.8995 18.6305 20.3192 17.9174 20.3192H8.68086C7.96775 20.3192 7.38737 20.8995 7.38737 21.6126V30.8492C7.38737 31.5623 7.96775 32.1427 8.68086 32.1427ZM9.97743 24.0113V22.9061H16.6239V24.0113H9.97743ZM9.97743 29.5526V26.5983H16.6239V29.5526H9.97743Z" fill="#E8491E"/>
<path d="M21.6126 32.1427H30.8492C31.5623 32.1427 32.1426 31.5623 32.1426 30.8492V21.6126C32.1426 20.8995 31.5623 20.3192 30.8492 20.3192H21.6126C20.8995 20.3192 20.3191 20.8995 20.3191 21.6126V30.8492C20.3191 31.5623 20.8995 32.1427 21.6126 32.1427ZM22.9061 24.0113V22.9061H29.5526V24.0113H22.9061ZM22.9061 29.5526V26.5983H29.5526V29.5526H22.9061Z" fill="#E8491E"/>
<path d="M34.5413 32.1427H43.7778C44.4909 32.1427 45.0713 31.5623 45.0713 30.8492V21.6126C45.0713 20.8995 44.4909 20.3192 43.7778 20.3192H34.5413C33.8282 20.3192 33.2478 20.8995 33.2478 21.6126V30.8492C33.2478 31.5623 33.8282 32.1427 34.5413 32.1427ZM35.8348 24.0113V22.9061H42.4813V24.0113H35.8348ZM35.8348 29.5526V26.5983H42.4813V29.5526H35.8348Z" fill="#E8491E"/>
<path d="M41.6138 18.2879C41.7712 18.8157 42.2466 19.1831 42.8116 19.2109H42.8517C43.3827 19.2109 43.855 18.8929 44.0526 18.399L45.6949 14.2993L49.7976 12.657C50.1187 12.5305 50.3718 12.2835 50.5077 11.9655C50.6435 11.6475 50.6497 11.2956 50.52 10.9746C50.3718 10.6041 50.0693 10.3263 49.6896 10.2151L40.4531 7.44295C39.7677 7.2392 39.0484 7.62818 38.8416 8.31042C38.7675 8.5543 38.7675 8.81053 38.8416 9.05441L41.6138 18.2879ZM42.012 10.6134L45.3955 11.629L44.2193 12.0983C43.8921 12.2279 43.6297 12.4903 43.4969 12.8206L43.0277 13.9968L42.012 10.6134Z" fill="#E8491E"/>
</svg>
