<svg width="629" height="613" viewBox="0 0 629 613" fill="none" xmlns="http://www.w3.org/2000/svg">
<mask id="path-1-inside-1_1_3588" fill="white">
<path d="M590.879 302.891C590.879 368.884 565.43 432.526 519.47 481.469C473.511 530.412 410.316 561.167 342.145 567.769C273.975 574.37 205.689 556.346 150.535 517.194C95.3803 478.043 57.2895 420.554 43.6517 355.881C30.0139 291.207 41.8014 223.96 76.7274 167.184C111.653 110.409 167.228 68.1528 232.67 48.6134C298.112 29.074 368.756 33.6444 430.898 61.438C493.039 89.2316 542.248 138.267 568.978 199.031L557.83 203.581C532.271 145.478 485.218 98.591 425.799 72.0149C366.38 45.4389 298.83 41.0687 236.255 59.7521C173.679 78.4356 120.539 118.841 87.1431 173.129C53.747 227.418 42.4759 291.719 55.5163 353.559C68.5567 415.4 104.979 470.37 157.717 507.807C210.456 545.244 275.75 562.477 340.934 556.165C406.118 549.853 466.545 520.445 510.492 473.646C554.438 426.847 578.772 365.994 578.772 302.891H590.879Z"/>
</mask>
<path d="M590.879 302.891C590.879 368.884 565.43 432.526 519.47 481.469C473.511 530.412 410.316 561.167 342.145 567.769C273.975 574.37 205.689 556.346 150.535 517.194C95.3803 478.043 57.2895 420.554 43.6517 355.881C30.0139 291.207 41.8014 223.96 76.7274 167.184C111.653 110.409 167.228 68.1528 232.67 48.6134C298.112 29.074 368.756 33.6444 430.898 61.438C493.039 89.2316 542.248 138.267 568.978 199.031L557.83 203.581C532.271 145.478 485.218 98.591 425.799 72.0149C366.38 45.4389 298.83 41.0687 236.255 59.7521C173.679 78.4356 120.539 118.841 87.1431 173.129C53.747 227.418 42.4759 291.719 55.5163 353.559C68.5567 415.4 104.979 470.37 157.717 507.807C210.456 545.244 275.75 562.477 340.934 556.165C406.118 549.853 466.545 520.445 510.492 473.646C554.438 426.847 578.772 365.994 578.772 302.891H590.879Z" stroke="#EDEDED" stroke-width="2" mask="url(#path-1-inside-1_1_3588)"/>
<mask id="path-2-inside-2_1_3588" fill="white">
<path d="M127.815 426.047C96.1299 381.47 82.7637 327.146 90.3094 273.614C97.8551 220.081 125.775 171.157 168.652 136.331C211.53 101.505 266.308 83.2612 322.361 85.1382C378.413 87.0152 431.744 108.879 472.007 146.489C512.27 184.099 536.595 234.773 540.263 288.681C543.931 342.589 526.68 395.888 491.858 438.238C457.035 480.587 407.123 508.969 351.804 517.877C296.485 526.784 239.703 515.583 192.474 486.445L197.819 478.406C242.98 506.267 297.274 516.978 350.17 508.461C403.066 499.943 450.791 472.805 484.089 432.311C517.386 391.816 533.881 340.852 530.374 289.306C526.866 237.759 503.607 189.305 465.108 153.342C426.608 117.38 375.614 96.4736 322.016 94.6788C268.419 92.884 216.04 110.329 175.041 143.629C134.042 176.929 107.345 223.711 100.13 274.898C92.915 326.086 105.696 378.03 135.993 420.654L127.815 426.047Z"/>
</mask>
<path d="M127.815 426.047C96.1299 381.47 82.7637 327.146 90.3094 273.614C97.8551 220.081 125.775 171.157 168.652 136.331C211.53 101.505 266.308 83.2612 322.361 85.1382C378.413 87.0152 431.744 108.879 472.007 146.489C512.27 184.099 536.595 234.773 540.263 288.681C543.931 342.589 526.68 395.888 491.858 438.238C457.035 480.587 407.123 508.969 351.804 517.877C296.485 526.784 239.703 515.583 192.474 486.445L197.819 478.406C242.98 506.267 297.274 516.978 350.17 508.461C403.066 499.943 450.791 472.805 484.089 432.311C517.386 391.816 533.881 340.852 530.374 289.306C526.866 237.759 503.607 189.305 465.108 153.342C426.608 117.38 375.614 96.4736 322.016 94.6788C268.419 92.884 216.04 110.329 175.041 143.629C134.042 176.929 107.345 223.711 100.13 274.898C92.915 326.086 105.696 378.03 135.993 420.654L127.815 426.047Z" stroke="#EDEDED" stroke-width="2" mask="url(#path-2-inside-2_1_3588)"/>
<g opacity="0.2" filter="url(#filter0_f_1_3588)">
<path fill-rule="evenodd" clip-rule="evenodd" d="M210.494 480.069H428.81V562.682H210.494V480.069Z" fill="#5F5C6B"/>
</g>
<g filter="url(#filter1_d_1_3588)">
<path fill-rule="evenodd" clip-rule="evenodd" d="M200.097 75.98C200.097 58.3179 214.331 44 231.89 44H407.413C424.972 44 439.206 58.3179 439.206 75.98V159.484H439.964C440.694 159.484 441.285 160.079 441.285 160.813V213.81C441.285 214.544 440.694 215.139 439.964 215.139H439.206V508.741C439.206 526.403 424.972 540.721 407.413 540.721H231.89C214.331 540.721 200.097 526.403 200.097 508.741V231.665H199.339C198.61 231.665 198.019 231.07 198.019 230.336V195.32C198.019 194.586 198.61 193.991 199.339 193.991H200.097V185.62H199.339C198.61 185.62 198.019 185.025 198.019 184.291V149.275C198.019 148.541 198.61 147.946 199.339 147.946H200.097V129.11H199.339C198.61 129.11 198.019 128.515 198.019 127.781V108.462C198.019 107.729 198.61 107.134 199.339 107.134H200.097V75.98Z" fill="url(#paint0_linear_1_3588)"/>
</g>
<path fill-rule="evenodd" clip-rule="evenodd" d="M211.534 78.536C211.534 66.3934 221.32 56.5498 233.392 56.5498H254.566C256.755 56.5498 258.562 58.3468 259.057 60.4912C260.241 65.614 264.075 73.9125 276.497 73.9125C286.173 73.9125 352.518 73.9125 362.194 73.9125C374.616 73.9125 378.45 65.614 379.634 60.4912C380.129 58.3468 381.936 56.5498 384.125 56.5498H405.299C417.371 56.5498 427.157 66.3934 427.157 78.536V507.572C427.157 519.715 417.371 529.559 405.299 529.559H233.392C221.32 529.559 211.534 519.715 211.534 507.572V78.536Z" fill="white"/>
<rect x="224.531" y="260" width="189.881" height="204" rx="15" fill="url(#paint1_linear_1_3588)"/>
<g filter="url(#filter2_d_1_3588)">
<path d="M145 261.234C145 257.922 147.669 255.237 150.961 255.237H245.078C248.37 255.237 251.039 257.922 251.039 261.234V355.905C251.039 359.217 248.37 361.902 245.078 361.902H150.961C147.669 361.902 145 359.217 145 355.905V261.234Z" fill="white"/>
</g>
<g filter="url(#filter3_d_1_3588)">
<path d="M357.079 396.133C357.079 392.821 359.748 390.137 363.04 390.137H480.028C483.321 390.137 485.99 392.821 485.99 396.133V469.89C485.99 473.202 483.321 475.886 480.028 475.886H363.04C359.748 475.886 357.079 473.202 357.079 469.89V396.133Z" fill="white"/>
</g>
<path opacity="0.4" d="M379.949 422.177C379.949 419.498 382.109 417.325 384.773 417.325H461.066C463.73 417.325 465.89 419.498 465.89 422.177V422.177C465.89 424.857 463.73 427.03 461.066 427.03H384.773C382.109 427.03 379.949 424.857 379.949 422.177V422.177Z" fill="#ACABB7"/>
<path opacity="0.4" d="M379.949 442.799C379.949 440.12 382.109 437.947 384.773 437.947H443.07C445.734 437.947 447.893 440.12 447.893 442.799V442.799C447.893 445.479 445.734 447.652 443.07 447.652H384.773C382.109 447.652 379.949 445.479 379.949 442.799V442.799Z" fill="#ACABB7"/>
<path fill-rule="evenodd" clip-rule="evenodd" d="M197.5 328.809C208.9 328.809 218.141 319.513 218.141 308.047C218.141 296.58 208.9 287.284 197.5 287.284C186.101 287.284 176.859 296.58 176.859 308.047C176.859 319.513 186.101 328.809 197.5 328.809ZM197.5 336.804C213.289 336.804 226.089 323.929 226.089 308.047C226.089 292.164 213.289 279.289 197.5 279.289C181.711 279.289 168.911 292.164 168.911 308.047C168.911 323.929 181.711 336.804 197.5 336.804Z" fill="#F1F0F5"/>
<path fill-rule="evenodd" clip-rule="evenodd" d="M198.24 282.977C197.826 285.145 199.238 287.24 201.393 287.657C204.364 288.23 207.173 289.454 209.621 291.241C212.07 293.028 214.098 295.334 215.562 297.997C217.026 300.66 217.891 303.614 218.094 306.65C218.298 309.686 217.835 312.73 216.74 315.566C215.644 318.402 213.942 320.962 211.755 323.063C209.567 325.164 206.946 326.756 204.079 327.726C201.212 328.696 198.168 329.02 195.162 328.675C192.156 328.331 189.263 327.326 186.686 325.732C184.817 324.575 182.369 325.162 181.219 327.042C180.069 328.923 180.653 331.385 182.522 332.541C186.091 334.75 190.099 336.142 194.262 336.619C198.425 337.096 202.641 336.648 206.612 335.304C210.584 333.961 214.213 331.756 217.243 328.845C220.274 325.935 222.631 322.39 224.148 318.461C225.666 314.533 226.306 310.317 226.024 306.112C225.743 301.907 224.545 297.815 222.517 294.127C220.489 290.439 217.68 287.245 214.289 284.77C210.898 282.295 207.007 280.6 202.892 279.805C200.737 279.389 198.654 280.809 198.24 282.977Z" fill="#ACABB7"/>
<path d="M302.466 109.394C301.934 108.943 301.174 108.714 300.21 108.714C299.255 108.714 298.299 108.958 297.367 109.441C296.877 108.959 296.137 108.714 295.163 108.714C293.995 108.714 292.723 109.031 291.383 109.657C291.317 109.687 291.275 109.756 291.275 109.831V117.906C291.275 118.012 291.356 118.097 291.456 118.097H292.847C292.947 118.097 293.028 118.012 293.028 117.906V110.768C293.542 110.494 294.154 110.354 294.849 110.354C295.421 110.354 295.844 110.472 296.107 110.703C296.36 110.926 296.488 111.397 296.488 112.103V117.905C296.488 118.011 296.569 118.096 296.67 118.096H298.043C298.143 118.096 298.224 118.011 298.224 117.905V111.841C298.224 111.402 298.192 111.046 298.126 110.758C298.698 110.49 299.298 110.354 299.913 110.354C300.485 110.354 300.908 110.472 301.171 110.703C301.424 110.926 301.553 111.397 301.553 112.103V117.905C301.553 118.011 301.634 118.096 301.734 118.096H303.108C303.208 118.096 303.289 118.011 303.289 117.905V111.841C303.287 110.679 303.011 109.855 302.466 109.394Z" fill="#E8491E"/>
<path d="M308.53 108.749C307.262 108.749 306.283 109.222 305.621 110.154C304.971 111.069 304.641 112.196 304.641 113.501C304.641 116.713 306.033 118.341 308.778 118.341C309.92 118.341 310.895 118.178 311.673 117.856C311.752 117.823 311.8 117.737 311.786 117.648L311.604 116.443C311.596 116.384 311.562 116.334 311.513 116.305C311.464 116.277 311.405 116.274 311.354 116.297C310.739 116.576 310.051 116.718 309.307 116.718C308.368 116.718 307.653 116.474 307.182 115.994C306.741 115.543 306.505 114.805 306.479 113.797H311.757C311.845 113.797 311.92 113.731 311.935 113.64C312.025 113.107 312.071 112.643 312.071 112.26C312.071 111.163 311.768 110.294 311.172 109.677C310.577 109.061 309.687 108.749 308.53 108.749ZM310.283 112.261H306.524C306.54 112.146 306.571 112.021 306.615 111.887C306.688 111.666 306.8 111.422 306.948 111.161C307.085 110.917 307.3 110.708 307.584 110.54C307.869 110.37 308.204 110.284 308.58 110.284C309.119 110.284 309.53 110.44 309.834 110.761C310.133 111.077 310.285 111.541 310.285 112.138C310.285 112.186 310.284 112.227 310.283 112.261Z" fill="#E8491E"/>
<path d="M317.946 108.928C317.681 108.867 317.412 108.836 317.147 108.836C316.312 108.836 315.617 109.083 315.074 109.573L315.009 109.104C314.996 109.01 314.92 108.941 314.83 108.941H313.622C313.522 108.941 313.441 109.026 313.441 109.132V117.905C313.441 118.011 313.522 118.097 313.622 118.097H315.012C315.112 118.097 315.193 118.011 315.193 117.905V110.935C315.538 110.654 316.089 110.512 316.833 110.512C317.127 110.512 317.413 110.545 317.686 110.611C317.736 110.624 317.787 110.613 317.829 110.583C317.871 110.553 317.899 110.506 317.906 110.453L318.088 109.142C318.101 109.043 318.04 108.949 317.946 108.928Z" fill="#E8491E"/>
<path d="M324.829 116.471C324.818 116.415 324.786 116.368 324.739 116.34C324.692 116.313 324.636 116.309 324.587 116.329C323.916 116.599 323.242 116.736 322.582 116.736C321.877 116.736 321.314 116.49 320.861 115.983C320.411 115.481 320.182 114.658 320.182 113.537C320.182 112.427 320.403 111.612 320.837 111.115C321.274 110.615 321.802 110.372 322.45 110.372C323.155 110.372 323.804 110.475 324.379 110.677C324.426 110.694 324.478 110.689 324.522 110.664C324.566 110.639 324.598 110.596 324.611 110.545L324.892 109.409C324.916 109.311 324.865 109.211 324.775 109.179C323.944 108.883 323.15 108.732 322.417 108.732C321.292 108.732 320.317 109.144 319.52 109.957C318.72 110.771 318.314 111.976 318.314 113.538C318.314 115.135 318.715 116.348 319.504 117.146C320.291 117.94 321.31 118.343 322.533 118.343C323.235 118.343 324.04 118.175 324.927 117.843C325.012 117.812 325.062 117.719 325.044 117.626L324.829 116.471Z" fill="#E8491E"/>
<path d="M331.736 109.584C331.244 109.053 330.441 108.784 329.347 108.784C328.953 108.784 328.448 108.838 327.844 108.944C327.237 109.051 326.727 109.196 326.33 109.376C326.248 109.413 326.204 109.507 326.226 109.598L326.49 110.717C326.502 110.766 326.532 110.809 326.574 110.835C326.615 110.861 326.665 110.868 326.712 110.855C327.751 110.57 328.571 110.425 329.148 110.425C329.772 110.425 330.19 110.557 330.39 110.817C330.599 111.09 330.705 111.54 330.705 112.156V112.972C330.158 112.826 329.603 112.752 329.049 112.752C328.449 112.752 327.906 112.828 327.434 112.978C326.943 113.135 326.516 113.44 326.164 113.887C325.806 114.34 325.625 114.928 325.625 115.635C325.625 116.575 325.955 117.268 326.604 117.694C327.226 118.101 327.994 118.308 328.885 118.308C330.113 118.308 331.28 118.104 332.354 117.703C332.426 117.676 332.474 117.604 332.474 117.522V112.087C332.474 110.956 332.225 110.114 331.736 109.584ZM330.705 116.61C330.242 116.752 329.747 116.823 329.231 116.823C327.41 116.823 327.41 115.915 327.41 115.617C327.41 115.112 327.587 114.751 327.953 114.512C328.341 114.258 328.833 114.13 329.413 114.13C329.864 114.13 330.298 114.19 330.705 114.309V116.61Z" fill="#E8491E"/>
<path d="M340.286 109.385C339.754 108.94 338.978 108.714 337.981 108.714C336.725 108.714 335.415 109.031 334.084 109.657C334.019 109.687 333.977 109.756 333.977 109.831V117.906C333.977 118.012 334.058 118.097 334.158 118.097H335.548C335.648 118.097 335.729 118.012 335.729 117.906V110.746C336.379 110.475 337.086 110.338 337.832 110.338C338.335 110.338 338.723 110.463 338.986 110.708C339.242 110.949 339.372 111.436 339.372 112.156V117.906C339.372 118.012 339.453 118.097 339.553 118.097H340.926C341.026 118.097 341.107 118.012 341.107 117.906V111.894C341.107 110.685 340.831 109.84 340.286 109.385ZM355.662 110.495C355.749 110.495 355.824 110.43 355.84 110.34L356.055 109.169C356.066 109.113 356.052 109.055 356.017 109.01C355.983 108.966 355.932 108.941 355.877 108.941H353.311V106.721C353.311 106.615 353.23 106.529 353.13 106.529H351.723C351.623 106.529 351.542 106.615 351.542 106.721V108.942H350.598C350.497 108.942 350.416 109.027 350.416 109.133V110.304C350.416 110.41 350.497 110.495 350.598 110.495H351.542V115.652C351.542 116.619 351.706 117.281 352.044 117.677C352.386 118.078 353.018 118.273 353.974 118.273C354.5 118.273 355.088 118.152 355.723 117.912C355.808 117.88 355.858 117.787 355.839 117.693L355.624 116.593C355.613 116.539 355.581 116.492 355.536 116.465C355.49 116.437 355.436 116.433 355.387 116.451C354.901 116.629 354.442 116.72 354.024 116.72C353.837 116.72 353.686 116.698 353.574 116.653C353.484 116.618 353.426 116.567 353.391 116.494C353.346 116.399 353.318 116.311 353.309 116.234C353.299 116.143 353.294 116.006 353.294 115.828V110.495H355.662ZM346.35 108.75C345.082 108.75 344.104 109.222 343.441 110.154C342.791 111.07 342.462 112.196 342.462 113.502C342.462 116.714 343.853 118.342 346.598 118.342C347.741 118.342 348.716 118.179 349.494 117.857C349.573 117.824 349.62 117.738 349.607 117.649L349.425 116.444C349.417 116.385 349.383 116.335 349.334 116.306C349.285 116.277 349.226 116.274 349.175 116.298C348.56 116.577 347.872 116.719 347.128 116.719C346.188 116.719 345.474 116.475 345.003 115.994C344.562 115.544 344.326 114.805 344.3 113.798H349.577C349.665 113.798 349.741 113.732 349.756 113.641C349.845 113.109 349.891 112.645 349.891 112.261C349.891 111.164 349.589 110.295 348.994 109.678C348.397 109.062 347.508 108.75 346.35 108.75ZM348.103 112.262H344.344C344.361 112.146 344.391 112.021 344.436 111.887C344.509 111.668 344.62 111.424 344.768 111.162C344.905 110.918 345.119 110.709 345.404 110.54C345.69 110.371 346.025 110.285 346.399 110.285C346.939 110.285 347.349 110.441 347.653 110.762C347.953 111.078 348.105 111.542 348.105 112.138C348.105 112.186 348.105 112.228 348.103 112.262Z" fill="#E8491E"/>
<path d="M279.486 108.851H276.229C275.272 108.851 274.495 109.67 274.495 110.682V114.121L279.486 108.851Z" fill="#E8491E"/>
<path d="M284.086 118.117H287.342C288.3 118.117 289.076 117.296 289.076 116.285V112.847L284.086 118.117Z" fill="#E8491E"/>
<path d="M287.578 112.1C287.194 112.1 286.81 111.946 286.518 111.637L280.899 105.703C280.313 105.084 280.313 104.082 280.899 103.464C281.485 102.845 282.434 102.845 283.019 103.464L288.638 109.398C289.223 110.016 289.223 111.019 288.638 111.637C288.345 111.946 287.961 112.1 287.578 112.1Z" fill="#E8491E"/>
<path d="M288.637 109.397L287.348 108.036C287.348 108.036 286.192 106.814 283.018 103.463C285.134 105.697 285.493 110.479 283.443 112.644L280.898 115.332C280.312 115.95 280.312 116.953 280.898 117.57C281.191 117.88 281.575 118.034 281.958 118.034C282.341 118.034 282.725 117.879 283.018 117.57L288.637 111.636C289.223 111.018 289.223 110.015 288.637 109.397Z" fill="#E8491E"/>
<path d="M275.994 114.868C276.378 114.868 276.762 115.022 277.054 115.331L282.673 121.265C283.259 121.884 283.259 122.886 282.673 123.504C282.087 124.123 281.138 124.123 280.553 123.504L274.934 117.571C274.349 116.952 274.349 115.95 274.934 115.332C275.227 115.022 275.61 114.868 275.994 114.868Z" fill="#E8491E"/>
<path d="M274.934 117.57L276.223 118.932C276.223 118.932 277.38 120.153 280.553 123.504C278.438 121.271 278.079 116.488 280.128 114.324L282.674 111.636C283.259 111.017 283.259 110.015 282.674 109.397C282.381 109.087 281.997 108.934 281.614 108.934C281.23 108.934 280.846 109.088 280.554 109.397L274.934 115.332C274.349 115.949 274.349 116.952 274.934 117.57Z" fill="#E8491E"/>
<path d="M269.12 485V507" stroke="#BBBFC9" stroke-width="2" stroke-linecap="round" stroke-linejoin="round"/>
<path d="M273.808 489H266.776C265.906 489 265.071 489.369 264.456 490.025C263.841 490.682 263.495 491.572 263.495 492.5C263.495 493.428 263.841 494.318 264.456 494.975C265.071 495.631 265.906 496 266.776 496H271.464C272.334 496 273.169 496.369 273.784 497.025C274.399 497.682 274.745 498.572 274.745 499.5C274.745 500.428 274.399 501.318 273.784 501.975C273.169 502.631 272.334 503 271.464 503H263.495" stroke="#BBBFC9" stroke-width="2" stroke-linecap="round" stroke-linejoin="round"/>
<path d="M302.87 504.594V498.594H308.495" stroke="#BBBFC9" stroke-width="2" stroke-linecap="round" stroke-linejoin="round"/>
<path d="M302.87 498.594L307.22 502.954C308.228 504.029 309.474 504.815 310.843 505.237C312.213 505.659 313.66 505.705 315.05 505.369C316.44 505.034 317.728 504.328 318.793 503.318C319.859 502.308 320.667 501.027 321.142 499.594" stroke="#BBBFC9" stroke-width="2" stroke-linecap="round" stroke-linejoin="round"/>
<path d="M322.831 487.998V493.998H317.206" stroke="#BBBFC9" stroke-width="2" stroke-linecap="round" stroke-linejoin="round"/>
<path d="M322.831 493.998L318.481 489.638C317.473 488.563 316.227 487.777 314.858 487.355C313.488 486.932 312.041 486.887 310.651 487.222C309.261 487.558 307.973 488.263 306.908 489.273C305.842 490.283 305.034 491.565 304.559 492.998" stroke="#BBBFC9" stroke-width="2" stroke-linecap="round" stroke-linejoin="round"/>
<path d="M358.183 503C362.326 503 365.684 499.418 365.684 495C365.684 490.582 362.326 487 358.183 487C354.041 487 350.683 490.582 350.683 495C350.683 499.418 354.041 503 358.183 503Z" stroke="#BBBFC9" stroke-width="2" stroke-linecap="round" stroke-linejoin="round"/>
<path d="M367.559 505L363.48 500.65" stroke="#BBBFC9" stroke-width="2" stroke-linecap="round" stroke-linejoin="round"/>
<rect x="226.213" y="147" width="179.065" height="90" rx="10" fill="#E3E3E8"/>
<rect x="240.275" y="157" width="70.3134" height="10" rx="5" fill="#F1F0F5"/>
<rect x="324.651" y="157" width="70.3134" height="10" rx="5" fill="#F1F0F5"/>
<rect x="240.275" y="176" width="70.3134" height="10" rx="5" fill="#F1F0F5"/>
<rect x="324.651" y="176" width="70.3134" height="10" rx="5" fill="#F1F0F5"/>
<rect x="240.275" y="195" width="70.3134" height="10" rx="5" fill="#F1F0F5"/>
<rect x="324.651" y="195" width="70.3134" height="10" rx="5" fill="#F1F0F5"/>
<rect x="240.275" y="214" width="70.3134" height="10" rx="5" fill="#F1F0F5"/>
<rect x="324.651" y="214" width="70.3134" height="10" rx="5" fill="#F1F0F5"/>
<path d="M276.839 366.61V346.866C276.839 341.147 281.2 336.495 286.561 336.495H305.072L276.839 366.61ZM286.561 337.518C281.729 337.518 277.798 341.711 277.798 346.866V364.139L302.755 337.518H286.561Z" fill="url(#paint2_linear_1_3588)"/>
<path d="M315.252 418.89C312.99 418.89 310.863 417.95 309.264 416.243L279.319 384.303C277.719 382.597 276.839 380.329 276.839 377.915C276.839 375.502 277.719 373.233 279.319 371.528L309.264 339.587C310.863 337.88 312.989 336.941 315.252 336.941C317.515 336.941 319.642 337.88 321.24 339.587C322.84 341.293 323.721 343.561 323.721 345.974C323.721 348.387 322.84 350.656 321.24 352.361L307.677 366.829C304.266 370.468 301.967 375.678 301.024 381.905L321.24 403.469C322.84 405.175 323.721 407.444 323.721 409.856C323.721 412.269 322.84 414.538 321.24 416.243C319.641 417.951 317.514 418.89 315.252 418.89ZM300.862 383.18C299.479 394.696 302.828 407.323 309.29 414.794L309.322 414.832C309.408 414.931 309.494 415.028 309.581 415.125L309.643 415.195C309.742 415.304 309.842 415.413 309.942 415.52C311.361 417.034 313.246 417.867 315.251 417.867C317.257 417.867 319.143 417.034 320.561 415.52C321.979 414.007 322.759 411.996 322.759 409.856C322.759 407.717 321.978 405.705 320.561 404.193L300.862 383.18ZM306.764 412.641L307.05 412.945C306.969 412.831 306.891 412.715 306.811 412.598L306.764 412.641ZM279.998 383.579L304.874 410.113C303.727 408.028 302.746 405.744 301.944 403.286L301.939 403.274C301.765 402.74 301.596 402.187 301.44 401.637L301.42 401.565C301.348 401.31 301.277 401.055 301.21 400.798L301.158 400.606C301.098 400.374 301.04 400.143 300.983 399.91L301.28 399.81L300.98 399.893C300.918 399.638 300.856 399.372 300.794 399.101L300.772 399.006C300.715 398.752 300.661 398.498 300.609 398.243C300.596 398.185 300.585 398.127 300.574 398.069L300.557 397.985C300.528 397.838 300.499 397.691 300.471 397.544C300.059 395.397 299.79 393.217 299.67 391.062C299.534 388.607 299.589 386.156 299.832 383.78L299.849 383.607C299.861 383.505 299.871 383.404 299.882 383.303L299.887 383.269C299.894 383.201 299.902 383.133 299.91 383.066L299.934 382.873C299.956 382.694 299.98 382.516 300.003 382.34L300.192 381.027L300.202 381.039C300.424 379.735 300.704 378.469 301.039 377.265C302.302 372.731 304.307 368.975 306.998 366.104L320.562 351.637C321.98 350.124 322.76 348.113 322.76 345.974C322.76 343.835 321.979 341.823 320.562 340.311C319.144 338.799 317.259 337.965 315.252 337.965C313.246 337.965 311.36 338.799 309.943 340.311L279.998 372.252C277.07 375.374 277.07 380.456 279.998 383.579Z" fill="url(#paint3_linear_1_3588)"/>
<path d="M317.091 386.948C314.828 386.948 312.701 386.008 311.103 384.302C309.506 382.599 308.627 380.33 308.627 377.915C308.627 375.499 309.506 373.231 311.104 371.528L324.667 357.061C328.079 353.422 330.377 348.212 331.321 341.985L311.103 320.422C309.505 318.719 308.626 316.45 308.626 314.035C308.626 311.619 309.505 309.351 311.103 307.648C312.702 305.94 314.829 305 317.091 305C319.353 305 321.48 305.94 323.08 307.647L353.024 339.587C354.624 341.293 355.505 343.561 355.505 345.974C355.505 348.387 354.624 350.655 353.024 352.361L323.08 384.302C321.481 386.008 319.354 386.948 317.091 386.948ZM332.134 342.892C331.914 344.181 331.635 345.433 331.304 346.624C330.042 351.158 328.036 354.913 325.345 357.785L311.782 372.252C308.855 375.374 308.855 380.456 311.782 383.579C313.199 385.091 315.085 385.925 317.091 385.925C319.097 385.925 320.984 385.091 322.4 383.579L352.345 351.638C353.764 350.125 354.544 348.114 354.544 345.975C354.544 343.835 353.763 341.824 352.345 340.312L327.472 313.78C328.874 316.327 330.024 319.167 330.906 322.26L330.92 322.313C330.994 322.572 331.067 322.838 331.138 323.105L331.185 323.283C331.311 323.767 331.436 324.278 331.552 324.802L331.57 324.878C331.628 325.135 331.683 325.394 331.737 325.654C331.749 325.713 331.762 325.774 331.773 325.835L331.784 325.89C331.815 326.045 331.846 326.202 331.876 326.359C332.286 328.501 332.555 330.678 332.674 332.829C332.801 335.113 332.763 337.398 332.56 339.62L332.559 339.633C332.545 339.79 332.529 339.945 332.514 340.102L332.494 340.295C332.484 340.388 332.474 340.48 332.464 340.572L332.427 340.897C332.4 341.123 332.37 341.349 332.339 341.575L332.309 341.793C332.305 341.822 332.302 341.85 332.296 341.879L332.146 342.909L332.134 342.892ZM317.091 306.023C315.085 306.023 313.199 306.856 311.782 308.37C310.366 309.879 309.586 311.892 309.586 314.034C309.586 316.176 310.366 318.187 311.782 319.697L331.481 340.709C332.864 329.198 329.516 316.571 323.057 309.099L323.014 309.048C322.933 308.956 322.851 308.863 322.77 308.771L322.696 308.69C322.6 308.584 322.505 308.479 322.409 308.376L322.401 308.369C320.983 306.858 319.097 306.023 317.091 306.023ZM325.292 310.943C325.373 311.058 325.453 311.175 325.532 311.292L325.579 311.249L325.292 310.943Z" fill="url(#paint4_linear_1_3588)"/>
<path d="M345.782 387.395H327.272L355.505 357.28V377.024C355.505 382.743 351.143 387.395 345.782 387.395ZM329.589 386.372H345.782C350.614 386.372 354.544 382.179 354.544 377.024V359.751L329.589 386.372Z" fill="url(#paint5_linear_1_3588)"/>
<defs>
<filter id="filter0_f_1_3588" x="160.494" y="430.069" width="318.316" height="182.613" filterUnits="userSpaceOnUse" color-interpolation-filters="sRGB">
<feFlood flood-opacity="0" result="BackgroundImageFix"/>
<feBlend mode="normal" in="SourceGraphic" in2="BackgroundImageFix" result="shape"/>
<feGaussianBlur stdDeviation="25" result="effect1_foregroundBlur_1_3588"/>
</filter>
<filter id="filter1_d_1_3588" x="167.019" y="33" width="305.266" height="558.721" filterUnits="userSpaceOnUse" color-interpolation-filters="sRGB">
<feFlood flood-opacity="0" result="BackgroundImageFix"/>
<feColorMatrix in="SourceAlpha" type="matrix" values="0 0 0 0 0 0 0 0 0 0 0 0 0 0 0 0 0 0 127 0" result="hardAlpha"/>
<feOffset dy="20"/>
<feGaussianBlur stdDeviation="15.5"/>
<feColorMatrix type="matrix" values="0 0 0 0 0 0 0 0 0 0 0 0 0 0 0 0 0 0 0.03 0"/>
<feBlend mode="normal" in2="BackgroundImageFix" result="effect1_dropShadow_1_3588"/>
<feBlend mode="normal" in="SourceGraphic" in2="effect1_dropShadow_1_3588" result="shape"/>
</filter>
<filter id="filter2_d_1_3588" x="125" y="245.237" width="146.039" height="146.664" filterUnits="userSpaceOnUse" color-interpolation-filters="sRGB">
<feFlood flood-opacity="0" result="BackgroundImageFix"/>
<feColorMatrix in="SourceAlpha" type="matrix" values="0 0 0 0 0 0 0 0 0 0 0 0 0 0 0 0 0 0 127 0" result="hardAlpha"/>
<feOffset dy="10"/>
<feGaussianBlur stdDeviation="10"/>
<feColorMatrix type="matrix" values="0 0 0 0 0.4795 0 0 0 0 0.468125 0 0 0 0 0.525 0 0 0 0.1 0"/>
<feBlend mode="normal" in2="BackgroundImageFix" result="effect1_dropShadow_1_3588"/>
<feBlend mode="normal" in="SourceGraphic" in2="effect1_dropShadow_1_3588" result="shape"/>
</filter>
<filter id="filter3_d_1_3588" x="337.079" y="380.137" width="168.91" height="125.75" filterUnits="userSpaceOnUse" color-interpolation-filters="sRGB">
<feFlood flood-opacity="0" result="BackgroundImageFix"/>
<feColorMatrix in="SourceAlpha" type="matrix" values="0 0 0 0 0 0 0 0 0 0 0 0 0 0 0 0 0 0 127 0" result="hardAlpha"/>
<feOffset dy="10"/>
<feGaussianBlur stdDeviation="10"/>
<feColorMatrix type="matrix" values="0 0 0 0 0.4795 0 0 0 0 0.468125 0 0 0 0 0.525 0 0 0 0.1 0"/>
<feBlend mode="normal" in2="BackgroundImageFix" result="effect1_dropShadow_1_3588"/>
<feBlend mode="normal" in="SourceGraphic" in2="effect1_dropShadow_1_3588" result="shape"/>
</filter>
<linearGradient id="paint0_linear_1_3588" x1="381.108" y1="118.5" x2="318.941" y2="540.616" gradientUnits="userSpaceOnUse">
<stop stop-color="#C81A19"/>
<stop offset="1" stop-color="#E8491E"/>
</linearGradient>
<linearGradient id="paint1_linear_1_3588" x1="284.429" y1="414.625" x2="390.322" y2="256.824" gradientUnits="userSpaceOnUse">
<stop stop-color="#E8491E"/>
<stop offset="1" stop-color="#E8491E"/>
</linearGradient>
<linearGradient id="paint2_linear_1_3588" x1="295.12" y1="405" x2="352.065" y2="278.636" gradientUnits="userSpaceOnUse">
<stop stop-color="white"/>
<stop offset="1" stop-color="white" stop-opacity="0"/>
</linearGradient>
<linearGradient id="paint3_linear_1_3588" x1="295.12" y1="405" x2="352.065" y2="278.636" gradientUnits="userSpaceOnUse">
<stop stop-color="white"/>
<stop offset="1" stop-color="white" stop-opacity="0"/>
</linearGradient>
<linearGradient id="paint4_linear_1_3588" x1="295.12" y1="405" x2="352.065" y2="278.636" gradientUnits="userSpaceOnUse">
<stop stop-color="white"/>
<stop offset="1" stop-color="white" stop-opacity="0"/>
</linearGradient>
<linearGradient id="paint5_linear_1_3588" x1="295.12" y1="405" x2="352.065" y2="278.636" gradientUnits="userSpaceOnUse">
<stop stop-color="white"/>
<stop offset="1" stop-color="white" stop-opacity="0"/>
</linearGradient>
</defs>
</svg>
