<svg width="139" height="112" viewBox="0 0 139 112" fill="none" xmlns="http://www.w3.org/2000/svg">
<path d="M85.5 111.55C84.3 111.55 83.7 110.95 83.7 109.75V57.55C83.7 46.75 86.25 37.15 91.35 28.75C96.45 20.05 103.05 13.3 111.15 8.49997C119.55 3.39999 128.55 0.849992 138.15 0.849992V28.75C130.65 28.75 124.2 31.6 118.8 37.3C113.7 43 111.15 49.75 111.15 57.55H136.35C137.55 57.55 138.15 58.15 138.15 59.35V109.75C138.15 110.95 137.55 111.55 136.35 111.55H85.5ZM1.8 111.55C0.600001 111.55 1.27405e-06 110.95 1.27405e-06 109.75V57.55C1.27405e-06 46.75 2.55 37.15 7.65 28.75C12.75 20.05 19.35 13.3 27.45 8.49997C35.85 3.39999 44.85 0.849992 54.45 0.849992V28.75C46.95 28.75 40.5 31.6 35.1 37.3C30 43 27.45 49.75 27.45 57.55H52.65C53.85 57.55 54.45 58.15 54.45 59.35V109.75C54.45 110.95 53.85 111.55 52.65 111.55H1.8Z" fill="url(#paint0_linear_253:14)"/>
<defs>
<linearGradient id="paint0_linear_253:14" x1="-18" y1="-118" x2="174.26" y2="-118" gradientUnits="userSpaceOnUse">
<stop stop-color="#E8491E"/>
<stop offset="1" stop-color="#C71919"/>
</linearGradient>
</defs>
</svg>
