<svg width="115" height="115" viewBox="0 0 115 115" fill="none" xmlns="http://www.w3.org/2000/svg">
<path d="M114.956 40.152C114.62 35.6833 112.598 33.2215 108.236 32.1638C107.882 32.0784 107.527 31.9685 107.167 31.9364C106.261 31.8555 105.725 31.3641 105.305 30.5766C104.78 29.5891 104.191 28.623 103.519 27.7302C102.211 25.9949 100.457 24.9464 98.2759 24.7007C97.077 24.5664 95.8721 24.4473 94.6672 24.4183C94.0242 24.403 93.5554 24.1879 93.0957 23.7773C91.9519 22.7547 90.6523 22.1122 89.0579 22.158C88.7968 22.1656 88.4669 21.9107 88.2699 21.6879C87.4223 20.731 86.4297 19.9221 85.1484 19.8763C84.1343 19.8397 83.5525 19.3971 82.9096 18.7225C81.2511 16.9841 79.0336 16.4377 77.2636 17.4649C76.1641 18.1028 75.1974 17.6496 74.052 17.7198C74.3361 17.2741 74.5422 16.978 74.7209 16.6651C75.9564 14.4979 75.5945 11.5981 73.7939 10.4199C72.9021 9.83687 72.3217 9.0814 71.7536 8.24961C71.3108 7.6025 70.8694 6.94622 70.3563 6.35405C67.6761 3.26194 64.0323 3.29247 61.3796 6.41357C60.9306 6.94164 60.5107 7.49719 60.1243 7.981C58.7407 7.38425 57.4716 6.69898 56.1201 6.28232C53.895 5.594 51.6913 6.40289 50.72 8.26182C50.0389 9.56521 48.7958 9.65831 47.5756 10.2459C47.655 9.88876 47.6825 9.72851 47.7253 9.57436C48.1666 7.93979 48.2414 6.36626 47.0976 4.93468C46.925 4.71948 46.9266 4.35471 46.8777 4.05558C46.6303 2.56447 45.9736 1.34197 44.5808 0.629228C42.1038 -0.637529 39.2587 0.0599496 37.5635 2.2577C37.2948 2.6072 36.7511 2.93991 36.3326 2.94144C35.1399 2.94449 33.9426 2.80255 32.753 2.66367C31.4274 2.50952 30.0927 2.06845 28.7885 2.15544C25.8258 2.35385 23.8847 4.90415 24.4849 7.53229C24.769 8.77615 25.5936 9.64457 26.5344 10.4336C26.8062 10.661 27.0338 10.9403 27.2812 11.1967C27.1911 11.2975 27.101 11.3997 27.0108 11.5004C26.6489 11.2288 26.2015 11.0212 25.9388 10.6748C24.3765 8.60216 22.4065 7.71086 19.8286 8.41139C19.6392 8.46328 19.4422 8.47854 19.2498 8.52128C17.2248 8.96998 15.1479 9.25996 13.1916 9.9086C10.5358 10.7908 9.61495 12.9931 10.5038 15.6395C10.5862 15.8868 10.5954 16.1783 10.5618 16.4408C10.3037 18.431 10.238 20.3723 11.724 21.9993C11.8232 22.1076 11.9057 22.2969 11.8904 22.4358C11.7423 23.7193 11.5697 25.0013 11.3941 26.3566C11.388 26.3566 11.2246 26.3658 11.0612 26.3551C7.57771 26.1429 5.35875 28.2293 3.65902 30.804C2.37315 32.7499 1.5103 34.9873 0.561932 37.1408C-0.328404 39.1646 -0.372691 41.9453 2.00968 43.5479C2.22959 43.6959 2.34566 44.0943 2.38842 44.3934C2.59458 45.8158 3.07564 47.1436 4.39358 47.8213C5.79399 48.5416 7.16538 49.3566 8.58106 49.9885C9.86082 50.5593 11.2887 50.7791 12.4127 51.7513C12.6784 51.9817 13.1457 52.026 13.5291 52.0641C15.2838 52.2396 17.0385 52.4381 18.7978 52.5235C20.6579 52.6136 22.1972 51.9665 23.2357 50.312C23.4129 50.0297 23.8282 49.8969 24.2345 49.6298C24.3597 50.1365 24.4315 50.4036 24.4926 50.6738C24.9003 52.4869 25.7464 54.007 27.5331 54.7579C28.6907 55.2448 29.9201 55.5576 31.1082 55.9773C31.9711 56.2826 32.8431 56.5817 33.6662 56.977C35.0361 57.6363 36.1402 58.8497 37.7987 58.9229C37.956 58.9306 38.1881 59.2175 38.237 59.4113C38.4798 60.3591 38.5913 61.3481 38.909 62.2669C39.2129 63.146 39.5214 64.1792 40.1765 64.7409C41.0546 65.4918 42.2199 66.0381 43.35 66.3281C44.3731 66.5906 45.0879 67.1248 45.8423 67.7887C45.7491 67.9368 45.6819 68.0558 45.6025 68.1657C44.2174 70.0979 43.8524 72.1934 44.564 74.4751C44.6603 74.7833 44.6862 75.142 44.6419 75.464C44.1929 78.7591 45.4803 80.9859 48.5515 82.2847C48.8401 82.4068 49.0783 82.7731 49.2265 83.0814C49.5976 83.8582 49.9015 84.6671 50.2375 85.4607C50.323 85.6622 50.5322 85.8652 50.5139 86.0499C50.3428 87.6539 50.8957 89.0168 51.786 90.0928C50.4665 91.413 49.1501 92.6278 47.9696 93.9648C47.5176 94.4776 47.3832 95.2682 47.0976 95.929C46.9281 96.3197 46.8273 96.7761 46.557 97.0783C44.7045 99.1554 44.9825 101.991 47.2488 103.617C48.4934 104.508 49.8175 105.298 50.998 106.268C51.9708 107.067 53.023 107.765 52.5297 109.523C51.9372 111.641 52.9222 113.488 54.5746 114.437C56.2163 115.381 58.2841 115.127 59.9899 113.757C61.2865 112.714 62.1753 111.364 62.8915 109.882C63.0274 109.599 63.2336 109.277 63.4947 109.141C64.6065 108.566 65.419 107.711 66.0863 106.677C66.2559 106.414 66.5201 106.141 66.801 106.037C68.8337 105.282 69.7531 103.76 69.9714 101.681C70.0127 101.285 70.2097 100.824 70.4891 100.544C71.7139 99.3203 72.6455 97.9116 72.957 96.2205C73.3052 94.3296 73.4534 92.4004 73.7053 90.3599C75.3287 90.6422 76.636 89.6471 78.0211 88.8642C78.3342 88.6871 78.6686 88.5452 79.0031 88.4124C80.0171 88.0141 81.0892 87.7272 82.036 87.2113C82.9859 86.6924 83.8411 86.6283 84.8353 87.0068C87.1551 87.8905 89.2687 87.3929 90.7928 85.4394C91.6434 84.3481 92.3276 83.0905 92.8819 81.8177C93.3615 80.7173 93.9616 79.8595 95.0077 79.2414C96.9885 78.0693 98.2499 76.3294 98.3507 74.0004C98.4362 72.0178 99.0364 70.278 100.121 68.6602C100.244 68.4755 100.33 68.2634 100.426 68.0604C101.035 66.7799 101.507 65.4765 101.295 64.0129C101.168 63.1399 101.28 62.3111 101.851 61.5709C102.046 61.316 102.074 60.9391 102.225 60.643C102.33 60.4369 102.48 60.1805 102.674 60.1012C104.439 59.3747 105.185 57.8744 105.687 56.1925C105.912 55.4416 106.225 54.8205 107.011 54.474C107.934 54.0681 108.822 53.5797 109.699 53.0806C111.281 52.1801 112.52 50.9195 113.225 49.2376C114.433 46.3363 115.197 43.3525 114.956 40.152ZM110.304 45.6937C110.183 45.973 110.146 46.289 110.066 46.5866C109.667 48.0395 108.829 49.1506 107.486 49.8603C106.42 50.4235 105.36 51.0034 104.276 51.53C103.383 51.9634 102.844 52.6609 102.514 53.569C102.256 54.2802 102.027 55.0113 101.677 55.6767C101.475 56.0598 101.06 56.3314 100.741 56.6535C100.422 56.304 100.095 55.9636 99.7893 55.6019C99.7038 55.5012 99.719 55.3165 99.635 55.2158C99.4228 54.9639 99.1784 54.7381 98.9463 54.5015C98.7951 54.8327 98.5233 55.1608 98.5141 55.4951C98.4912 56.4154 98.6393 57.3418 98.6011 58.2606C98.5767 58.8512 98.5156 59.5762 98.169 59.9898C97.1503 61.2077 97.2954 62.5675 97.3122 63.9762C97.3214 64.7805 97.1137 65.6077 96.877 66.3861C96.709 66.9371 96.3562 67.4407 96.037 67.9337C95.1116 69.3607 94.6015 70.919 94.5969 72.6131C94.5923 74.2507 93.957 75.4686 92.494 76.2546C90.9943 77.0605 90.0276 78.2891 89.4473 79.9099C89.0839 80.9263 88.4974 81.8741 87.9248 82.799C87.517 83.4568 86.9046 83.669 86.1029 83.3393C84.0824 82.5075 82.1338 82.6388 80.2095 83.759C79.4307 84.2123 78.4838 84.3695 77.624 84.6915C77.1705 84.8609 76.7169 85.0548 76.3061 85.3081C75.3348 85.9079 74.4506 86.6115 73.1602 86.4238C71.213 86.1399 69.2369 88.6749 69.4705 90.5369C69.6614 92.057 69.4064 93.6611 69.1727 95.201C68.9513 96.6616 68.0182 97.7452 66.7415 98.4732C66.2039 98.78 65.9764 99.1585 66.0375 99.7568C66.0726 100.091 66.068 100.43 66.0726 100.766C66.0925 102.016 66.0329 102.025 64.8616 102.382C64.411 102.519 63.988 102.876 63.652 103.227C63.31 103.586 63.058 104.045 62.8228 104.49C62.2639 105.546 61.3888 105.91 60.2358 105.802C59.1026 105.695 58.8995 105.949 59.0522 107.08C59.121 107.588 59.318 108.223 59.1026 108.595C58.62 109.425 57.9374 110.147 57.2838 110.866C57.1418 111.023 56.7065 111.097 56.5355 110.993C56.3675 110.891 56.2514 110.488 56.3079 110.268C56.4973 109.54 56.7309 108.818 57.0272 108.127C57.7038 106.55 57.5449 106.103 56.0407 105.356C55.5718 105.123 55.0709 104.833 54.7563 104.433C53.4414 102.759 51.7081 101.66 49.877 100.669C49.6403 100.541 49.4387 100.347 48.8951 99.9399C49.3914 99.5996 49.7992 99.36 50.1596 99.0623C50.8728 98.4717 51.2744 97.7422 51.0866 96.77C51.0545 96.6021 51.0713 96.3503 51.1751 96.2404C52.4137 94.9278 53.4796 93.3986 55.5031 93.1223C56.1124 93.0384 56.7203 92.6812 57.2471 92.3302C58.0122 91.8205 58.4246 91.1077 58.2673 90.105C58.1924 89.6319 58.3513 89.1206 58.4093 88.5712C57.8366 88.4994 57.2593 88.4369 56.6851 88.3514C56.4087 88.3102 56.1323 88.2476 55.8681 88.1575C54.2264 87.599 53.924 86.5215 55.0755 85.2364C55.5382 84.7205 56.0834 84.2779 56.734 83.6659C55.9368 83.6659 55.3122 83.6842 54.6891 83.6613C53.4674 83.6186 52.8779 82.9165 53.0719 81.691C53.1498 81.198 53.3574 80.7264 53.4964 80.2426C53.7866 79.2307 53.3941 78.8889 52.3633 78.8644C51.3828 78.8415 50.3718 78.6492 49.4403 78.3348C48.5576 78.0372 48.4094 77.2039 48.4293 76.3172C48.4507 75.3221 48.5011 74.2904 48.2689 73.3395C47.9879 72.1934 48.1437 71.2441 48.837 70.339C49.3318 69.6934 49.8602 69.0692 50.3092 68.3931C50.9812 67.3797 50.859 66.76 49.9458 65.9985C48.9149 65.1392 47.9589 64.1655 46.8426 63.4405C46.1248 62.9735 45.1917 62.7858 44.3258 62.6133C43.0705 62.3646 42.9453 62.2592 42.7528 61.023C42.6551 60.3957 42.2733 59.8066 42.2122 59.1809C42.1084 58.1034 42.0916 57.0091 42.1588 55.9285C42.2061 55.1608 41.8533 54.8708 41.2104 54.8678C40.598 54.8663 39.9795 55.0723 39.3732 55.0357C38.7028 54.9945 37.9835 54.9059 37.391 54.619C35.8623 53.8803 34.5718 52.6914 32.8232 52.345C31.7053 52.1237 30.6241 51.7101 29.5261 51.3865C28.8618 51.1911 28.425 50.7333 28.3731 50.077C28.254 48.5783 28.2372 47.0719 28.1547 45.5686C28.1287 45.0909 28.0279 44.6177 27.9623 44.1416C27.4247 44.2453 26.8749 44.314 26.3526 44.4697C26.0991 44.5445 25.8746 44.7627 25.6715 44.9535C25.0118 45.5747 24.2558 45.9349 23.3365 45.973C21.736 46.0387 20.4456 46.585 19.8118 48.2166C19.7309 48.4256 19.2636 48.6134 18.9856 48.5981C17.3913 48.5065 15.7954 48.3936 14.2163 48.1784C13.9414 48.1402 13.526 47.574 13.5367 47.2642C13.5764 46.1363 13.7642 45.0115 13.9124 43.8882C13.9368 43.702 14.0483 43.5265 14.1185 43.3464C14.0743 43.267 14.0284 43.1862 13.9842 43.1068C13.5627 43.3235 13.048 43.4502 12.738 43.7737C12.1393 44.398 11.6675 45.1397 11.1253 45.8173C10.4243 46.6949 10.2411 46.6293 9.63022 45.7288C9.36907 45.3442 8.81319 45.1168 8.34588 44.9291C8.02364 44.7994 7.62505 44.868 7.26159 44.8329C6.60186 44.7704 6.23686 44.4254 6.24908 43.7356C6.25366 43.4838 6.2445 43.2304 6.2445 42.9786C6.24603 41.3715 6.05819 41.0708 4.55088 40.4802C4.00415 40.2665 3.79799 39.9033 3.94307 39.366C4.05913 38.9372 4.21796 38.5129 4.41038 38.1115C5.23352 36.3915 6.00015 34.6394 6.94089 32.9865C7.40973 32.1623 8.1504 31.4587 8.87733 30.8254C9.6684 30.137 10.6748 30.1157 11.6781 30.3293C11.869 30.3705 12.0691 30.3751 12.2646 30.395C14.6989 30.6392 15.5541 29.8791 15.5938 27.4127C15.6014 26.9656 15.6106 26.5062 15.5266 26.0697C15.2777 24.7983 15.4747 23.6705 16.1985 22.5502C16.8827 21.4895 16.6979 20.9538 15.58 20.1556C14.8104 19.6062 14.2239 19.0521 14.2972 17.9853C14.3385 17.3809 14.5126 17.0772 15.0929 16.8987C15.7847 16.6865 16.4444 16.3706 17.1194 16.1004C17.1164 15.9738 17.1118 15.8471 17.1087 15.7204C16.5452 15.4625 15.9557 15.2458 15.4243 14.9314C14.9493 14.6505 14.54 14.2598 14.1017 13.918C14.5828 13.6768 15.0394 13.3258 15.5495 13.2144C17.4386 12.7962 19.3414 12.4269 21.2504 12.117C21.5925 12.0621 22.0491 12.2956 22.3515 12.5291C22.6966 12.7962 22.8783 13.2693 23.2158 13.5501C23.8511 14.0782 24.52 14.5834 25.2302 15.0046C25.7464 15.3114 26.3358 15.5296 26.9207 15.6731C27.4079 15.7922 28.0203 15.9265 28.4311 15.7372C30.3141 14.8734 31.8962 13.573 33.2936 12.0484C33.3867 11.9461 33.4601 11.8209 33.5181 11.6958C33.5517 11.6256 33.5364 11.5325 33.5608 11.2273C33.0034 11.2273 32.4689 11.2105 31.9375 11.2318C31.3953 11.2547 31.2136 11.0929 31.122 10.4855C31.0212 9.8094 30.6592 9.12108 30.2469 8.55943C29.8391 8.00694 29.2191 7.6147 28.7029 7.14005C28.1409 6.62267 28.1684 6.2518 28.9061 6.10833C29.5597 5.98166 30.2774 6.10528 30.954 6.20601C32.3345 6.41205 33.6998 6.80276 35.0834 6.87754C36.267 6.94165 37.475 6.7005 38.6631 6.53567C39.5855 6.40747 40.1185 5.75578 40.4942 4.95604C40.8408 4.21888 41.3753 3.82512 42.2366 3.95027C42.7666 4.02658 43.0292 4.27383 43.043 4.82631C43.0659 5.7863 43.1178 6.73408 43.9654 7.43003C44.1074 7.54603 44.0922 7.96726 44.0204 8.2084C43.747 9.11955 43.411 10.0124 43.1148 10.9174C42.6795 12.2483 42.8277 12.6878 44.0555 13.3945C45.8469 14.4247 47.7192 14.2873 49.5915 13.6494C50.5704 13.3151 51.5233 12.9046 52.4931 12.5444C53.275 12.2529 53.7133 11.6927 53.8965 10.893C54.1103 9.95744 54.402 9.77582 55.3061 10.0795C55.8345 10.2581 56.3354 10.5206 56.8394 10.7648C57.519 11.096 58.1756 11.4806 58.8674 11.7797C60.781 12.6085 61.6316 12.3765 62.9511 10.7297C63.5299 10.0063 64.0659 9.2447 64.6997 8.57469C65.503 7.72612 66.2986 7.72459 67.0988 8.58233C67.6685 9.19434 68.1312 9.90708 68.6168 10.5923C69.3621 11.6409 70.002 12.7672 71.213 13.4097C71.41 13.5135 71.5505 14.1148 71.4329 14.3361C71.1993 14.7757 70.8221 15.1924 70.4067 15.4701C69.8997 15.8074 69.4812 16.0333 69.7515 16.7811C69.8386 17.0208 69.5774 17.4817 69.3499 17.7228C68.6566 18.4569 67.8777 19.1071 67.1798 19.8366C66.3475 20.705 65.4648 21.5551 64.7974 22.5426C64.3881 23.1485 64.2186 23.9894 64.1652 24.7403C64.1178 25.4027 64.6187 25.6454 65.1991 25.2852C65.8603 24.8746 66.4712 24.3664 67.05 23.8429C69.1223 21.9672 72.421 21.1095 75.289 21.778C74.8584 22.3167 74.4521 22.8341 74.0367 23.3423C73.7099 23.7422 73.829 24.0261 74.2108 24.3191C75.2814 25.1372 76.8437 24.8212 77.6347 23.5575C77.8974 23.1378 78.0394 22.6387 78.1998 22.1626C78.7129 20.6425 79.3268 20.5143 80.4065 21.7245C80.7242 22.0802 80.9975 22.4754 81.3259 22.8219C81.6725 23.1867 82.0085 23.6232 82.4438 23.8216C82.8454 24.0047 83.4639 24.0902 83.8274 23.9055C84.5283 23.5484 84.9437 23.7483 85.324 24.2947C86.0158 25.2883 86.6725 26.3001 86.7443 27.5669C86.7611 27.863 86.8389 28.156 87.1001 28.533C87.4162 28.0675 87.7216 27.5959 88.05 27.1395C88.9877 25.8377 89.4687 25.7599 90.6767 26.8313C91.764 27.7943 92.888 28.4582 94.4473 28.3285C95.5514 28.2369 96.6861 28.4368 97.8009 28.5574C99.0593 28.6948 99.9909 29.4029 100.67 30.4255C101.229 31.2649 101.726 32.1471 102.225 33.0231C103.024 34.4257 104.206 35.2773 105.783 35.6085C106.607 35.781 107.425 35.9794 108.234 36.2068C109.807 36.6509 110.683 37.7147 110.915 39.3203C111.229 41.5012 111.196 43.6364 110.304 45.6937Z" fill="#E8491E"/>
</svg>
