<svg width="45" height="44" viewBox="0 0 45 44" fill="none" xmlns="http://www.w3.org/2000/svg">
<path d="M21.1735 6.82324C12.8367 6.82324 6.11035 13.5969 6.11035 21.8864C6.11035 30.1759 12.884 36.9496 21.1735 36.9496C29.463 36.9496 36.284 30.2232 36.284 21.8864C36.284 13.5496 29.5104 6.82324 21.1735 6.82324ZM21.1735 8.67061C22.9735 8.67061 24.8209 10.8969 25.9577 14.639C24.4419 14.4022 22.8788 14.2601 21.1735 14.2601C19.4682 14.2601 17.9051 14.4022 16.3893 14.639C17.5261 10.9443 19.4209 8.67061 21.1735 8.67061ZM26.4314 16.6285C26.7156 18.1917 26.9051 19.9443 26.9051 21.8864C26.9051 23.7811 26.7156 25.5811 26.4314 27.1443C24.8682 27.4285 23.1156 27.618 21.1735 27.618C19.2788 27.618 17.4788 27.4285 15.9156 27.1443C15.6314 25.5811 15.4419 23.8285 15.4419 21.8864C15.4419 19.9917 15.6314 18.1917 15.9156 16.6285C17.4788 16.3443 19.2314 16.1548 21.1735 16.1548C23.1156 16.1548 24.8682 16.3443 26.4314 16.6285ZM16.863 9.42851C15.8209 10.8496 14.9682 12.7917 14.3998 15.0653C12.1261 15.6338 10.184 16.4864 8.76298 17.5285C10.0893 13.739 13.0735 10.7548 16.863 9.42851ZM13.9735 17.1022C13.7367 18.618 13.5946 20.1811 13.5946 21.8864C13.5946 23.5443 13.7367 25.1548 13.9735 26.6706C10.2314 25.5811 8.00509 23.6864 8.00509 21.8864C8.00509 20.0864 10.2314 18.239 13.9735 17.1022ZM8.76298 26.2443C10.184 27.2864 12.1261 28.139 14.3998 28.7075C14.9682 30.9811 15.8209 32.9232 16.863 34.3443C13.0735 33.018 10.0893 30.0338 8.76298 26.2443ZM21.1735 35.1022C19.3735 35.1022 17.5261 32.8759 16.3893 29.1338C17.9051 29.3706 19.4682 29.5127 21.1735 29.5127C22.8788 29.5127 24.4419 29.3706 25.9577 29.1338C24.8682 32.8285 22.9735 35.1022 21.1735 35.1022ZM25.5314 34.3443C26.5735 32.9232 27.4261 30.9811 27.9946 28.7075C30.2682 28.139 32.2104 27.2864 33.6314 26.2443C32.3051 30.0338 29.3209 33.018 25.5314 34.3443ZM28.4209 26.6706C28.6577 25.1548 28.7998 23.5917 28.7998 21.8864C28.7998 20.2285 28.6577 18.618 28.4209 17.1022C32.163 18.1917 34.3893 20.0864 34.3893 21.8864C34.3893 23.6864 32.163 25.5338 28.4209 26.6706ZM27.9946 15.0653C27.4261 12.7917 26.5735 10.8496 25.5314 9.42851C29.3209 10.7548 32.3051 13.739 33.6314 17.5285C32.2104 16.4864 30.2682 15.6338 27.9946 15.0653Z" fill="#E8491E"/>
<path d="M17.5737 21.8866C17.5737 23.8761 19.1843 25.534 21.2211 25.534C23.2579 25.534 24.8685 23.9235 24.8685 21.8866C24.8685 19.8498 23.2579 18.2393 21.2211 18.2393C19.1843 18.2393 17.5737 19.8972 17.5737 21.8866ZM22.9264 21.8866C22.9264 22.834 22.1211 23.6393 21.1737 23.6393C20.2264 23.6393 19.4211 22.834 19.4211 21.8866C19.4211 20.9393 20.2264 20.134 21.1737 20.134C22.1685 20.134 22.9264 20.9393 22.9264 21.8866Z" fill="#E8491E"/>
<path d="M44.7158 21.3655L42.1105 18.7603C41.7316 18.3813 41.1632 18.3813 40.7842 18.7603L38.1789 21.3655C37.8 21.7445 37.8 22.3129 38.1789 22.6918C38.5579 23.0708 39.1263 23.0708 39.5053 22.6918L40.5 21.6971V21.8866C40.5 32.5445 31.8316 41.2129 21.1737 41.2129C10.5632 41.2129 1.89474 32.5445 1.89474 21.8866C1.89474 11.2287 10.5632 2.56026 21.1737 2.56026C29.1789 2.56026 36.2368 7.39184 39.1737 14.7813C39.3632 15.255 39.9316 15.4918 40.4053 15.3024C40.8789 15.1129 41.1158 14.5445 40.9263 14.0708C37.7053 5.97079 29.9368 0.712891 21.1737 0.712891C9.52105 0.712891 0 10.1866 0 21.8866C0 33.5866 9.52105 43.0603 21.1737 43.0603C32.8263 43.0603 42.3947 33.5866 42.3947 21.8866V21.6971L43.3895 22.6918C43.5789 22.8813 43.8158 22.976 44.0526 22.976C44.2895 22.976 44.5263 22.8813 44.7158 22.6918C45.0947 22.3603 45.0947 21.7445 44.7158 21.3655Z" fill="#E8491E"/>
</svg>
