<?xml version="1.0" standalone="no"?>
<!DOCTYPE svg PUBLIC "-//W3C//DTD SVG 20010904//EN"
 "http://www.w3.org/TR/2001/REC-SVG-20010904/DTD/svg10.dtd">
<svg version="1.0" xmlns="http://www.w3.org/2000/svg"
 width="116.000000pt" height="116.000000pt" viewBox="0 0 116.000000 116.000000"
 preserveAspectRatio="xMidYMid meet">
<metadata>
Created by potrace 1.14, written by Peter Selinger 2001-2017
</metadata>
<g transform="translate(0.000000,116.000000) scale(0.100000,-0.100000)"
fill="#000000" stroke="none">
<path d="M545 1148 c-32 -19 -44 -40 -45 -77 0 -31 13 -48 125 -161 120 -121
124 -127 116 -156 -17 -61 -46 -101 -142 -200 -80 -83 -99 -108 -99 -132 0
-61 71 -108 121 -81 13 6 103 92 201 189 168 168 178 180 178 216 0 36 -10 48
-183 221 -153 154 -188 184 -217 188 -19 3 -44 0 -55 -7z"/>
<path d="M209 826 c-50 -25 -60 -54 -57 -168 l3 -107 144 143 144 144 -106 -1
c-59 0 -116 -5 -128 -11z"/>
<path d="M534 825 c-16 -7 -109 -93 -207 -192 -159 -161 -177 -183 -177 -213
0 -30 18 -52 183 -217 196 -198 219 -213 272 -184 78 44 65 97 -52 212 -49 48
-102 102 -120 120 l-32 34 24 59 c19 46 45 81 124 161 96 97 106 113 101 160
-5 48 -68 81 -116 60z"/>
<path d="M855 470 c-103 -103 -135 -140 -120 -141 75 -4 199 3 216 11 37 20
49 53 52 148 1 50 0 98 -3 106 -4 12 -44 -23 -145 -124z"/>
</g>
</svg>
