<svg width="31" height="43" viewBox="0 0 31 43" fill="none" xmlns="http://www.w3.org/2000/svg">
<path d="M10.6101 12.2518H3.68659C1.65129 12.2518 0 13.8856 0 15.902V22.7558L10.6101 12.2518Z" fill="white"/>
<path d="M20.3902 30.7207H27.3125C29.349 30.7207 30.9991 29.0858 30.9991 27.0706V20.2168L20.3902 30.7207Z" fill="white"/>
<path d="M27.8129 18.7278C26.9978 18.7278 26.1815 18.42 25.5596 17.8043L13.6141 5.97691C12.3691 4.74425 12.3691 2.74625 13.6141 1.51482C14.8591 0.282169 16.877 0.282169 18.1208 1.51482L30.0663 13.3422C31.3112 14.5748 31.3112 16.5728 30.0663 17.8043C29.4444 18.42 28.628 18.7278 27.8129 18.7278Z" fill="#BBBFC9"/>
<path d="M30.0663 13.3409L27.3261 10.6278C27.3261 10.6278 24.8671 8.19318 18.1208 1.51355C22.6175 5.96582 23.3806 15.4983 19.0238 19.812L13.6129 25.1695C12.3679 26.4021 12.3679 28.4001 13.6129 29.6315C14.2347 30.2485 15.0511 30.5551 15.8662 30.5551C16.6813 30.5551 17.4977 30.2473 18.1195 29.6315L30.065 17.8042C31.3112 16.5716 31.3112 14.5735 30.0663 13.3409Z" fill="white"/>
<path d="M3.18736 24.2448C4.00247 24.2448 4.81882 24.5526 5.44069 25.1683L17.3862 36.9957C18.6312 38.2283 18.6312 40.2263 17.3862 41.4577C16.1412 42.6904 14.1233 42.6904 12.8795 41.4577L0.934031 29.6316C-0.310937 28.399 -0.310937 26.401 0.934031 25.1695C1.5559 24.5526 2.37101 24.2448 3.18736 24.2448Z" fill="#BBBFC9"/>
<path d="M0.934031 29.6316L3.6742 32.3446C3.6742 32.3446 6.13316 34.7793 12.8795 41.4589C8.38278 37.0066 7.61969 27.4741 11.9765 23.1605L17.3874 17.803C18.6324 16.5704 18.6324 14.5724 17.3874 13.3409C16.7656 12.724 15.9492 12.4174 15.1341 12.4174C14.319 12.4174 13.5026 12.7252 12.8808 13.3409L0.934031 25.1695C-0.310937 26.4009 -0.310937 28.3989 0.934031 29.6316Z" fill="white"/>
</svg>
