<svg width="51" height="46" viewBox="0 0 51 46" fill="none" xmlns="http://www.w3.org/2000/svg">
<path d="M39.8097 43.1972H10.6377C10.0436 43.1972 9.56201 42.7156 9.56201 42.1216V30.4527C9.56201 29.9971 9.84899 29.5909 10.2785 29.4388L16.7674 27.1398L18.7817 26.3498C19.3032 26.1455 19.8943 26.3752 20.1406 26.8783L23.2323 33.1951L24.3828 31.2613C24.5801 30.9297 24.9405 30.728 25.3257 30.7359C25.7115 30.7425 26.0642 30.9553 26.2499 31.2936L27.2677 33.1467L30.4398 26.8663C30.6863 26.3785 31.2597 26.1528 31.7721 26.3421L40.182 29.4435C40.6047 29.5992 40.8855 30.0021 40.8855 30.4527V42.1215C40.8854 42.7156 40.4037 43.1972 39.8097 43.1972ZM11.7133 41.046H38.7341V31.2025L31.9277 28.6924L28.2676 35.9386C28.0876 36.295 27.7251 36.5223 27.3261 36.529C26.9278 36.5352 26.5569 36.3212 26.3647 35.9713L25.2698 33.9777L24.0644 36.0036C23.8625 36.343 23.4899 36.5445 23.0962 36.5283C22.7017 36.5123 22.3476 36.2812 22.174 35.9265L18.6442 28.7145L17.5363 29.149C17.5252 29.1534 17.514 29.1575 17.5027 29.1615L11.7134 31.2126V41.046H11.7133Z" fill="#E8491E"/>
<path d="M34.8089 43.1976H15.6386C15.0446 43.1976 14.563 42.7159 14.563 42.122V34.6206C14.563 34.0266 15.0446 33.5449 15.6386 33.5449C16.2327 33.5449 16.7143 34.0266 16.7143 34.6206V41.0463H33.7332V34.6206C33.7332 34.0266 34.2149 33.5449 34.8089 33.5449C35.4028 33.5449 35.8845 34.0266 35.8845 34.6206V42.122C35.8845 42.7159 35.4028 43.1976 34.8089 43.1976Z" fill="#E8491E"/>
<path d="M27.3073 36.5292C26.9153 36.5292 26.5537 36.3158 26.3646 35.9713L24.3642 32.329C24.1661 31.9683 24.1913 31.526 24.4291 31.1899L28.9298 24.8303C29.1225 24.5581 29.4306 24.3905 29.7639 24.3769C30.0958 24.3627 30.4179 24.5049 30.6322 24.7606L32.2243 26.6601C32.5005 26.9897 32.5538 27.4521 32.36 27.8361L28.2675 35.9384C28.0876 36.2948 27.7251 36.5221 27.326 36.5289C27.3199 36.5292 27.3135 36.5292 27.3073 36.5292ZM26.5738 31.8834L27.2676 33.1466L30.1203 27.4989L29.8799 27.212L26.5738 31.8834Z" fill="#E8491E"/>
<path d="M23.1401 36.5294C23.1254 36.5294 23.1108 36.5291 23.0961 36.5286C22.7015 36.5124 22.3474 36.2814 22.1738 35.9267L18.2082 27.8243C18.0282 27.4565 18.0725 27.0186 18.3226 26.6945L19.7878 24.795C19.9943 24.5275 20.3141 24.3673 20.6524 24.3763C20.9904 24.3803 21.3067 24.543 21.5067 24.8154L26.1742 31.175C26.4298 31.5231 26.4523 31.9904 26.2315 32.3615L24.0644 36.0037C23.8699 36.3307 23.5182 36.5294 23.1401 36.5294ZM20.4343 27.4791L23.232 33.1954L24.0183 31.8739L20.618 27.2409L20.4343 27.4791Z" fill="#E8491E"/>
<path d="M25.4266 24.0588C22.8904 24.0588 20.5831 22.3684 18.9294 19.2991C17.6749 16.9707 16.8643 13.9048 16.8643 11.4885C16.8643 10.8915 16.9286 10.2811 17.0554 9.67414C17.1312 9.31144 17.3883 9.01327 17.736 8.88505C18.0833 8.75673 18.4727 8.81632 18.7659 9.04296C18.9786 9.20731 19.319 9.4033 19.7319 9.4033H28.015C28.5066 9.4033 28.744 9.00499 28.8051 8.8829C29.0689 8.35552 29.7083 8.13878 30.238 8.39682L32.9866 9.73492C33.3799 9.80634 33.7128 10.0944 33.8284 10.4965C33.9379 10.8776 33.9889 11.1929 33.9889 11.4886C33.9889 13.905 33.1782 16.9708 31.9237 19.2992C30.27 22.3684 27.9626 24.0588 25.4266 24.0588ZM19.0155 11.4802C19.0155 11.4829 19.0155 11.4857 19.0155 11.4884C19.0155 13.5751 19.7251 16.2405 20.8233 18.2786C21.7152 19.9341 23.2378 21.9075 25.4266 21.9075C27.6153 21.9075 29.138 19.9341 30.03 18.2786C31.1142 16.2662 31.8197 13.6424 31.8374 11.5678L30.0888 10.7165C29.5342 11.2478 28.7998 11.5544 28.0151 11.5544H19.732C19.4906 11.5545 19.2512 11.5294 19.0155 11.4802Z" fill="#E8491E"/>
<path d="M32.7937 11.9122C32.633 11.9122 32.4719 11.8763 32.3229 11.8037L30.0887 10.716C29.5341 11.2473 28.7997 11.5538 28.015 11.5538H19.7319C18.9248 11.5538 18.1359 11.2741 17.4507 10.7447C16.3767 9.9151 15.7095 8.5756 15.7095 7.24913V4.3022C15.7095 3.70813 16.191 3.22656 16.7851 3.22656H27.7364C29.0448 3.22656 30.0477 4.18141 30.5405 5.04202C30.6178 5.14464 30.6753 5.24865 30.7195 5.34525L33.558 7.93076C33.787 8.13933 33.9149 8.43652 33.9091 8.7462L33.8693 10.8571C33.8623 11.2241 33.6685 11.5623 33.3554 11.7539C33.1835 11.8591 32.989 11.9122 32.7937 11.9122ZM17.8607 5.37784V7.24902C17.8607 7.91355 18.216 8.61734 18.7659 9.04211C18.9787 9.20647 19.319 9.40245 19.7319 9.40245H28.015C28.5067 9.40245 28.7441 9.00414 28.8052 8.88205C29.0689 8.35467 29.7082 8.13793 30.238 8.39597L31.604 9.06104L29.0827 6.76434C28.9466 6.64042 28.8447 6.4837 28.7865 6.30923C28.7838 6.30074 28.781 6.29224 28.7783 6.28374C28.7483 6.24244 28.7212 6.19909 28.6972 6.1538C28.4629 5.71139 28.0498 5.37784 27.7363 5.37784H17.8607Z" fill="#E8491E"/>
<path d="M49.9245 31.5734H41.2067C40.6127 31.5734 40.131 31.0917 40.131 30.4978C40.131 29.9038 40.6127 29.4221 41.2067 29.4221H48.8489V24.4943L45.2269 23.1585L42.1665 25.3988C41.7889 25.6749 41.2766 25.6756 40.8984 25.4008L37.8258 23.1662L37.1991 23.4119C36.6461 23.6292 36.0219 23.3562 35.805 22.8032C35.5881 22.2501 35.8607 21.626 36.4137 21.4092L37.5892 20.9483C37.9308 20.8142 38.3175 20.8638 38.6145 21.0797L41.529 23.1995L44.4221 21.0817C44.7132 20.8688 45.0914 20.8157 45.4296 20.9405L50.2968 22.7355C50.7195 22.8914 51.0002 23.2941 51.0002 23.7447V30.498C51.0001 31.0919 50.5185 31.5734 49.9245 31.5734Z" fill="#E8491E"/>
<path d="M46.1684 31.5738C45.5744 31.5738 45.0928 31.0921 45.0928 30.4981V26.8911C45.0928 26.2971 45.5744 25.8154 46.1684 25.8154C46.7624 25.8154 47.2441 26.2971 47.2441 26.8911V30.4981C47.2441 31.0922 46.7624 31.5738 46.1684 31.5738Z" fill="#E8491E"/>
<path d="M9.79347 31.5737H1.07564C0.481563 31.5737 0 31.0921 0 30.4981V23.7448C0 23.2943 0.280742 22.8915 0.703467 22.7356L5.57062 20.9406C5.90902 20.8158 6.28711 20.8689 6.57817 21.0818L9.47121 23.1996L12.3858 21.0798C12.6826 20.8639 13.0692 20.8141 13.4112 20.9484L14.5866 21.4093C15.1397 21.6261 15.4122 22.2502 15.1953 22.8033C14.9785 23.3564 14.3543 23.629 13.8013 23.412L13.1745 23.1663L10.102 25.4009C9.72377 25.676 9.21123 25.6751 8.8339 25.3989L5.77349 23.1586L2.15149 24.4944V29.4222H9.79369C10.3878 29.4222 10.8693 29.9039 10.8693 30.4979C10.8693 31.0918 10.3875 31.5737 9.79347 31.5737Z" fill="#E8491E"/>
<path d="M5.2939 31.5738C4.69983 31.5738 4.21826 31.0921 4.21826 30.4981V26.8911C4.21826 26.2971 4.69983 25.8154 5.2939 25.8154C5.88798 25.8154 6.36954 26.2971 6.36954 26.8911V30.4981C6.36954 31.0922 5.88798 31.5738 5.2939 31.5738Z" fill="#E8491E"/>
<path d="M9.23729 19.9494C8.55533 19.9494 7.89382 19.7988 7.26995 19.5019C6.68265 19.2223 6.13837 18.8103 5.69736 18.3123C4.7906 17.2904 4.2915 15.9427 4.2915 14.5153C4.2915 13.0901 4.78952 11.7444 5.69198 10.7237C6.13192 10.2246 6.67512 9.81259 7.26027 9.53292C7.88306 9.2339 8.54458 9.08223 9.22438 9.08008H9.22868C9.81921 9.08008 10.3022 9.56089 10.3043 10.1525C10.3054 10.4397 10.1946 10.7097 9.99131 10.914C9.78909 11.1173 9.51911 11.2303 9.23191 11.2314C8.5037 11.2357 7.83573 11.553 7.30222 12.151C6.74719 12.776 6.4417 13.616 6.4417 14.5153C6.4417 15.4156 6.74826 16.2567 7.30544 16.8828C7.84111 17.4797 8.51016 17.7971 9.24159 17.7981C9.97195 17.7971 10.641 17.4797 11.1767 16.8828C11.7338 16.2567 12.0404 15.4156 12.0404 14.5153V14.5013C12.0393 14.2141 12.1501 13.9441 12.3523 13.7397C12.5546 13.5364 12.8245 13.4235 13.1117 13.4224H13.116C13.7066 13.4224 14.1895 13.9032 14.1917 14.4938V14.5153C14.1906 15.9427 13.6915 17.2904 12.7847 18.3123C12.3437 18.8103 11.7995 19.2223 11.2122 19.5019C10.5883 19.7988 9.92677 19.9494 9.24589 19.9494H9.23729ZM12.0501 12.5877C11.7328 12.5877 11.4327 12.449 11.2283 12.207C11.2283 12.207 11.2283 12.2059 11.2272 12.2059C11.0422 11.9865 10.954 11.7079 10.9777 11.4228C11.0024 11.1356 11.1369 10.8764 11.3563 10.6914C11.5499 10.5268 11.7962 10.4365 12.049 10.4365C12.3674 10.4365 12.6664 10.5763 12.8719 10.8183C13.2548 11.2712 13.1978 11.951 12.7439 12.3339C12.5503 12.4985 12.3039 12.5877 12.0501 12.5877Z" fill="#E8491E"/>
<path d="M41.2107 19.9494C41.2096 19.9494 41.2075 19.9494 41.2064 19.9494H41.2021C40.5213 19.9494 39.8587 19.7988 39.2348 19.5019C38.6475 19.2223 38.1043 18.8103 37.6633 18.3123C36.7565 17.2915 36.2563 15.9427 36.2563 14.5153C36.2563 13.0901 36.7544 11.7444 37.6579 10.7237C38.0978 10.2246 38.64 9.81259 39.2262 9.53292C39.849 9.2339 40.5094 9.08223 41.1903 9.08008H41.1935C41.7851 9.08008 42.2669 9.56089 42.2692 10.1525C42.2713 10.7452 41.7905 11.2292 41.1978 11.2314C40.4685 11.2357 39.8017 11.554 39.2681 12.151C38.7131 12.776 38.4065 13.616 38.4076 14.5153C38.4065 15.4156 38.7131 16.2567 39.2704 16.8828C39.806 17.4808 40.4762 17.7971 41.2065 17.7981C41.9369 17.7971 42.607 17.4808 43.1427 16.8828C43.6999 16.2567 44.0063 15.4156 44.0054 14.5153V14.5013C44.0043 14.2141 44.1152 13.9441 44.3184 13.7397C44.5206 13.5354 44.7906 13.4235 45.0778 13.4224H45.081C45.6726 13.4224 46.1545 13.9032 46.1566 14.4938V14.5153C46.1566 15.9427 45.6566 17.2915 44.7508 18.3123C44.3088 18.8103 43.7656 19.2223 43.1783 19.5019C42.5541 19.7988 41.8916 19.9494 41.2107 19.9494ZM44.016 12.5877C43.6987 12.5877 43.3986 12.449 43.1941 12.207C43.0081 11.9875 42.9198 11.7089 42.9435 11.4217C42.9673 11.1356 43.1017 10.8764 43.3211 10.6914C43.5148 10.5268 43.7611 10.4365 44.0148 10.4365C44.3321 10.4365 44.6312 10.5752 44.8355 10.8172C44.8367 10.8172 44.8367 10.8183 44.8367 10.8183C45.2196 11.2712 45.1625 11.951 44.7097 12.3339C44.5162 12.4985 44.2699 12.5877 44.016 12.5877Z" fill="#E8491E"/>
<path d="M9.59632 2.15128H2.06685C1.47277 2.15128 0.991211 1.66971 0.991211 1.07564C0.991211 0.481563 1.47277 0 2.06685 0H9.59632C10.1904 0 10.672 0.481563 10.672 1.07564C10.672 1.66971 10.1904 2.15128 9.59632 2.15128Z" fill="#E8491E"/>
<path d="M10.6721 5.37784H6.36958C5.77551 5.37784 5.29395 4.89628 5.29395 4.3022C5.29395 3.70813 5.77551 3.22656 6.36958 3.22656H10.6721C11.2662 3.22656 11.7478 3.70813 11.7478 4.3022C11.7478 4.89628 11.2662 5.37784 10.6721 5.37784Z" fill="#E8491E"/>
<path d="M40.7903 3.22647H35.4121C34.8181 3.22647 34.3364 2.74491 34.3364 2.15083C34.3364 1.55676 34.8181 1.0752 35.4121 1.0752H40.7903C41.3842 1.0752 41.8659 1.55676 41.8659 2.15083C41.8659 2.74491 41.3842 3.22647 40.7903 3.22647Z" fill="#E8491E"/>
<path d="M49.3953 5.37784H45.0927C44.4988 5.37784 44.0171 4.89628 44.0171 4.3022C44.0171 3.70813 44.4988 3.22656 45.0927 3.22656H49.3953C49.9892 3.22656 50.4709 3.70813 50.4709 4.3022C50.4709 4.89628 49.9892 5.37784 49.3953 5.37784Z" fill="#E8491E"/>
<path d="M4.21817 38.7227H2.06689V40.8739H4.21817V38.7227Z" fill="#E8491E"/>
<path d="M6.36954 36.5713H4.21826V38.7226H6.36954V36.5713Z" fill="#E8491E"/>
<path d="M47.2436 43.0254H45.0923V45.1767H47.2436V43.0254Z" fill="#E8491E"/>
<path d="M49.3949 40.874H47.2437V43.0253H49.3949V40.874Z" fill="#E8491E"/>
</svg>
