<svg width="59" height="54" viewBox="0 0 59 54" fill="none" xmlns="http://www.w3.org/2000/svg">
<g clip-path="url(#clip0)">
<path d="M52.816 0.989502H5.55854C2.65221 0.989502 0.272766 3.36895 0.272766 6.27527V38.4573C0.272766 40.7688 2.15083 42.6468 4.46229 42.6468H22.0277L21.1269 44.9158L18.1016 52.3686C17.9911 52.6405 17.9911 52.9379 18.1101 53.2184C18.2291 53.4988 18.4415 53.7027 18.7135 53.8132C18.8494 53.8642 18.9854 53.8982 19.1299 53.8982H39.2617C39.5591 53.8982 39.8311 53.7792 40.0435 53.5753C40.256 53.3628 40.3664 53.0909 40.3664 52.7935C40.3664 52.649 40.341 52.513 40.2815 52.3771L36.3554 42.6893H53.9208C56.2323 42.6893 58.1103 40.8112 58.1103 38.4998V6.27527C58.1018 3.36895 55.7309 0.989502 52.816 0.989502ZM37.6046 51.6717H20.77L22.8945 46.4284H35.4886L35.5226 46.5049L37.6046 51.6717ZM23.7868 44.2105L24.4242 42.6638H33.9674L34.6048 44.2105H23.7868ZM55.8838 38.4573C55.8838 39.545 55 40.4288 53.9123 40.4288H4.46229C3.37454 40.4288 2.49075 39.545 2.49075 38.4573V35.602H55.8838V38.4573ZM55.8838 33.384H2.49075V6.27527C2.49075 4.58417 3.86743 3.20749 5.55854 3.20749H52.816C54.5072 3.20749 55.8838 4.58417 55.8838 6.27527V33.384Z" fill="white"/>
<path d="M28.3587 39.1201H30.0158C30.6277 39.1201 31.1206 38.6272 31.1206 38.0154C31.1206 37.4035 30.6192 36.9106 30.0158 36.9106H28.3587C27.7469 36.9106 27.254 37.412 27.254 38.0154C27.254 38.6187 27.7469 39.1201 28.3587 39.1201Z" fill="white"/>
</g>
<defs>
<clipPath id="clip0">
<rect width="57.8291" height="52.8917" fill="white" transform="translate(0.272766 0.989502)"/>
</clipPath>
</defs>
</svg>
