<svg width="136" height="18" viewBox="0 0 136 18" fill="none" xmlns="http://www.w3.org/2000/svg">
<path d="M56.8771 11.8239H65.5133L60.9468 4.4771L52.5657 17.7604H48.7513L58.9455 1.80433C59.3888 1.15963 60.1275 0.770142 60.9468 0.770142C61.7392 0.770142 62.4779 1.1462 62.9077 1.77746L73.1422 17.7604H69.3278L67.528 14.7922H58.7843L56.8771 11.8239ZM96.4988 14.7922V0.931314H93.2619V16.1487C93.2619 16.5651 93.4231 16.968 93.732 17.2769C94.0409 17.5858 94.4573 17.7604 94.9139 17.7604H109.675L111.582 14.7922H96.4988ZM42.9491 12.3074C46.092 12.3074 48.6439 9.76896 48.6439 6.62609C48.6439 3.48323 46.092 0.931314 42.9491 0.931314H28.7887V17.7604H32.0243V3.89958H42.7342C44.2386 3.89958 45.4473 5.12181 45.4473 6.62609C45.4473 8.13037 44.2386 9.3526 42.7342 9.3526L33.6092 9.33915L43.2714 17.7604H47.9724L41.4718 12.3074H42.9491ZM8.87052 17.7604C4.22467 17.7604 0.454529 13.9997 0.454529 9.3526C0.454529 4.70544 4.22467 0.931314 8.87052 0.931314H18.6523C23.2994 0.931314 27.0669 4.70544 27.0669 9.3526C27.0669 13.9997 23.2994 17.7604 18.6523 17.7604H8.87052ZM18.4347 14.7922C21.4447 14.7922 23.8824 12.3611 23.8824 9.3526C23.8824 6.34404 21.4447 3.89958 18.4347 3.89958H9.08671C6.07815 3.89958 3.63901 6.34404 3.63901 9.3526C3.63901 12.3611 6.07815 14.7922 9.08671 14.7922H18.4347ZM79.898 17.7604C75.2508 17.7604 71.4767 13.9997 71.4767 9.3526C71.4767 4.70544 75.2508 0.931314 79.898 0.931314H91.5159L89.6221 3.89958H80.1129C77.1043 3.89958 74.6599 6.34404 74.6599 9.3526C74.6599 12.3611 77.1043 14.7922 80.1129 14.7922H91.7844L89.8773 17.7604H79.898ZM119.479 14.7922C116.995 14.7922 114.886 13.1267 114.241 10.83H128.075L129.982 7.86174H114.241C114.886 5.57846 116.995 3.89958 119.479 3.89958H128.975L130.896 0.931314H119.264C114.617 0.931314 110.843 4.70544 110.843 9.3526C110.843 13.9997 114.617 17.7604 119.264 17.7604H129.244L131.151 14.7922H119.479Z" fill="#8F8F8F"/>
<path d="M132.628 2.71787C132.628 1.89857 133.286 1.24046 134.106 1.24046C134.939 1.24046 135.597 1.89857 135.597 2.71787C135.597 3.55059 134.939 4.20872 134.106 4.20872C133.286 4.20872 132.628 3.55059 132.628 2.71787ZM134.106 4.62509C135.153 4.62509 136 3.77893 136 2.73131C136 1.68368 135.153 0.837524 134.106 0.837524C133.072 0.837524 132.225 1.68368 132.225 2.73131C132.225 3.77893 133.072 4.62509 134.106 4.62509ZM133.931 1.6031C134.227 1.6031 134.348 1.61652 134.482 1.67024C134.858 1.79113 134.898 2.12691 134.898 2.26122C134.898 2.28808 134.898 2.35523 134.871 2.43581C134.858 2.51641 134.804 2.67758 134.616 2.79846C134.589 2.81189 134.576 2.82532 134.522 2.85218L135.006 3.72521H134.536L134.106 2.91933H133.81V3.72521H133.394V1.6031H133.931ZM134.079 2.57013C134.213 2.55671 134.348 2.5567 134.428 2.43581C134.468 2.38209 134.482 2.32837 134.482 2.24778C134.482 2.14034 134.415 2.04633 134.321 1.9926C134.227 1.95231 134.133 1.95231 133.931 1.95231H133.81V2.57013H134.079Z" fill="#8F8F8F"/>
</svg>
