<svg width="27" height="27" viewBox="0 0 27 27" fill="none" xmlns="http://www.w3.org/2000/svg">
<path d="M24.8378 0H1.81791C1.33577 0 0.873377 0.191529 0.532453 0.532453C0.191529 0.873377 0 1.33577 0 1.81791V17.8674C0.013466 18.3415 0.2106 18.7918 0.549789 19.1232C0.888978 19.4546 1.34368 19.6413 1.81791 19.6438H11.0944V21.4617C10.0964 21.7072 9.18667 22.2261 8.46733 22.9601C7.74799 23.6941 7.24758 24.6142 7.02232 25.6169V25.8351C6.99786 25.9472 6.99917 26.0635 7.02616 26.175C7.05315 26.2866 7.10512 26.3906 7.17814 26.4791C7.25016 26.5699 7.34176 26.6432 7.44609 26.6936C7.55043 26.7439 7.66479 26.7701 7.78065 26.77H18.9166C19.0287 26.769 19.1394 26.7444 19.2414 26.6979C19.3434 26.6514 19.4345 26.5839 19.5088 26.4999C19.5798 26.4119 19.6321 26.3103 19.6624 26.2013C19.6928 26.0923 19.7006 25.9783 19.6854 25.8662C19.5066 24.801 19.0167 23.8124 18.2773 23.0249C17.5379 22.2375 16.5821 21.6863 15.5301 21.4409V19.6438H24.8067C25.288 19.6411 25.7488 19.4487 26.0891 19.1083C26.4294 18.768 26.6218 18.3072 26.6246 17.8259V1.81791C26.6246 1.34112 26.4374 0.883389 26.1032 0.543347C25.769 0.203305 25.3145 0.0081735 24.8378 0ZM1.81791 1.55821H24.8378C24.9067 1.55821 24.9728 1.58557 25.0215 1.63427C25.0702 1.68298 25.0975 1.74903 25.0975 1.81791V13.9719H1.55821V1.81791C1.55821 1.74903 1.58557 1.68298 1.63427 1.63427C1.68298 1.58557 1.74903 1.55821 1.81791 1.55821ZM17.8778 25.2637H8.7779C9.08628 24.5582 9.59323 23.9577 10.237 23.5353C10.8807 23.1129 11.6334 22.8869 12.4033 22.8849H14.2628C15.0321 22.8836 15.7849 23.1084 16.4276 23.5314C17.0703 23.9543 17.5746 24.5567 17.8778 25.2637ZM14.0031 21.3267H12.6526V19.6438H14.0031V21.3267ZM24.8378 18.1271H1.81791C1.74903 18.1271 1.68298 18.0998 1.63427 18.0511C1.58557 18.0024 1.55821 17.9363 1.55821 17.8674V15.4886H25.0975V17.8259C25.1036 17.8633 25.1014 17.9016 25.0911 17.9381C25.0808 17.9745 25.0626 18.0083 25.0379 18.037C25.0131 18.0657 24.9824 18.0887 24.9478 18.1043C24.9133 18.1198 24.8757 18.1276 24.8378 18.1271Z" fill="#FC5E33"/>
</svg>
