<svg width="30" height="32" viewBox="0 0 30 32" fill="none" xmlns="http://www.w3.org/2000/svg">
<g clip-path="url(#clip0)">
<path d="M15.1946 6.26237C15.2636 5.77955 15.7119 5.46917 16.1947 5.57263C18.2639 5.9175 20.1262 6.88313 21.6092 8.40054C23.0921 9.91796 24.0577 11.7802 24.4371 13.815C24.506 14.2978 24.1957 14.7461 23.7473 14.8151C23.7128 14.8151 23.6439 14.8151 23.6094 14.8151C23.1955 14.8151 22.8162 14.5047 22.7472 14.0909C22.4713 12.401 21.6436 10.8146 20.4021 9.60758C19.1606 8.36606 17.6087 7.57286 15.9188 7.26248C15.4015 7.19351 15.0912 6.74518 15.1946 6.26237Z" fill="#E8491E"/>
<path d="M28.2992 13.8501C27.7819 10.8152 26.3334 8.05628 24.1607 5.84913C21.9536 3.64198 19.1947 2.22803 16.1598 1.71072C15.677 1.64175 15.3666 1.19342 15.4701 0.710609C15.5736 0.227795 15.9874 -0.0825855 16.4702 0.0208747C19.8154 0.572662 22.9192 2.15905 25.3678 4.60761C27.8163 7.05617 29.4372 10.16 29.989 13.5397C30.058 14.0225 29.7476 14.4708 29.2993 14.5398C29.2648 14.5398 29.1958 14.5398 29.1613 14.5398C28.7475 14.5743 28.3681 14.2639 28.2992 13.8501Z" fill="#E8491E"/>
</g>
<g clip-path="url(#clip1)">
<path d="M27.8849 27.4171C29.1954 26.0721 29.1954 24.2788 27.8849 22.9683L24.2983 19.3817C23.6775 18.7264 22.9188 18.3816 22.0912 18.3816C21.298 18.3816 20.5392 18.7264 19.884 19.3817L17.8148 21.4509C17.6424 21.3474 17.4699 21.2784 17.2975 21.175C17.0561 21.0715 16.8492 20.9336 16.6423 20.8301C14.711 19.6231 12.9522 18.0022 11.2968 15.9675C10.4691 14.9329 9.91734 14.0707 9.53799 13.1741C10.0553 12.6912 10.5726 12.1739 11.0554 11.6911C11.2278 11.5187 11.4348 11.3118 11.6072 11.1393C12.2624 10.4841 12.6418 9.6909 12.6418 8.89771C12.6418 8.10451 12.2969 7.3458 11.6072 6.65607L9.84837 4.86276C9.64145 4.65584 9.43453 4.44892 9.26209 4.242C8.88274 3.82816 8.4689 3.41432 8.05506 3.03496C7.4343 2.4142 6.67559 2.06934 5.88239 2.06934C5.0892 2.06934 4.33049 2.4142 3.67524 3.03496L1.43361 5.2766C0.605926 6.10428 0.123112 7.1044 0.0196515 8.27695C-0.118295 10.1737 0.433492 11.9325 0.847333 13.1051C1.88193 15.933 3.46832 18.5885 5.81342 21.4164C8.67582 24.8306 12.09 27.486 15.987 29.3828C17.4699 30.107 19.4702 30.9347 21.7118 31.0727C21.8497 31.0727 21.9877 31.0727 22.1256 31.0727C23.6086 31.0727 24.8846 30.5209 25.8502 29.4518L25.8847 29.4173C26.2296 29.0035 26.6089 28.6241 27.0228 28.2448C27.3331 28.0034 27.609 27.7275 27.8849 27.4171ZM25.8502 27.0377C25.4364 27.4516 24.988 27.8654 24.6087 28.3482C23.9534 29.0724 23.1602 29.3828 22.1601 29.3828C22.0567 29.3828 21.9532 29.3828 21.8497 29.3828C19.9185 29.2104 18.1252 28.4862 16.7457 27.8309C13.0556 26.0376 9.84837 23.5201 7.1584 20.3128C4.95125 17.6573 3.46832 15.1743 2.46821 12.5188C1.84745 10.8979 1.64053 9.62193 1.74399 8.44938C1.81296 7.69067 2.12334 7.06991 2.64064 6.51812L4.84779 4.31097C5.15817 4.00059 5.50304 3.82816 5.84791 3.82816C6.26175 3.82816 6.60662 4.06957 6.84802 4.31097C7.26186 4.69033 7.60673 5.06968 8.02057 5.48352C8.22749 5.69044 8.43441 5.89736 8.64133 6.10428L10.4002 7.86311C10.745 8.20797 10.9175 8.55284 10.9175 8.89771C10.9175 9.24257 10.745 9.58744 10.4002 9.93231C10.2277 10.1047 10.0208 10.3117 9.84837 10.4841C9.29658 11.0359 8.77928 11.5532 8.22749 12.0705L8.193 12.105C7.64122 12.6568 7.74468 13.2085 7.84814 13.5534C7.84814 13.5879 7.84814 13.5879 7.88262 13.6224C8.33095 14.726 8.9862 15.7951 9.98631 17.0366C11.7796 19.2437 13.6764 20.9681 15.7456 22.2786C16.0215 22.451 16.2974 22.5889 16.5388 22.7269C16.7802 22.8303 16.9871 22.9683 17.194 23.0718C17.2285 23.0718 17.2285 23.1062 17.263 23.1062C17.4699 23.2097 17.6769 23.2787 17.8838 23.2787C18.4011 23.2787 18.7459 22.9338 18.8494 22.8303L21.091 20.5887C21.298 20.3818 21.6773 20.1059 22.0912 20.1059C22.505 20.1059 22.8154 20.3818 23.0568 20.5887L26.6434 24.1753C27.4711 25.003 27.0917 25.7617 26.6089 26.2445C26.402 26.5204 26.1261 26.7618 25.8502 27.0377Z" fill="white"/>
</g>
<defs>
<clipPath id="clip0">
<rect width="14.8259" height="14.8155" fill="white" transform="translate(15.1738)"/>
</clipPath>
<clipPath id="clip1">
<rect width="28.8689" height="29.0034" fill="white" transform="translate(0 2.06934)"/>
</clipPath>
</defs>
</svg>
