<svg width="30" height="37" viewBox="0 0 30 37" fill="none" xmlns="http://www.w3.org/2000/svg">
<path d="M29 15C29 25.8889 15 35.2222 15 35.2222C15 35.2222 1 25.8889 1 15C1 11.287 2.475 7.72601 5.1005 5.1005C7.72601 2.475 11.287 1 15 1C18.713 1 22.274 2.475 24.8995 5.1005C27.525 7.72601 29 11.287 29 15Z" stroke="#E8491E" stroke-width="2" stroke-linecap="round" stroke-linejoin="round"/>
<path d="M14.9997 19.6666C17.577 19.6666 19.6663 17.5773 19.6663 15C19.6663 12.4227 17.577 10.3333 14.9997 10.3333C12.4223 10.3333 10.333 12.4227 10.333 15C10.333 17.5773 12.4223 19.6666 14.9997 19.6666Z" stroke="#FC5E33" stroke-width="2" stroke-linecap="round" stroke-linejoin="round"/>
</svg>
