<svg width="43" height="40" viewBox="0 0 43 40" fill="none" xmlns="http://www.w3.org/2000/svg">
<path d="M0.870324 0.596342C0.627511 0.623639 0.403501 0.742994 0.242446 0.930882C0.0813899 1.11877 -0.00502746 1.36156 0.000226219 1.6114V38.5908C0.000252111 38.8558 0.103189 39.11 0.286397 39.2975C0.469606 39.4849 0.718082 39.5902 0.977178 39.5902H42.0091C42.1386 39.5921 42.2671 39.5676 42.3873 39.5182C42.5074 39.4689 42.6167 39.3955 42.7089 39.3025C42.8011 39.2096 42.8743 39.0987 42.9243 38.9766C42.9743 38.8544 43 38.7232 43 38.5908C43 38.4583 42.9743 38.3272 42.9243 38.205C42.8743 38.0828 42.8011 37.972 42.7089 37.879C42.6167 37.786 42.5074 37.7127 42.3873 37.6633C42.2671 37.6139 42.1386 37.5895 42.0091 37.5913H1.95413V1.6114C1.95712 1.46912 1.93039 1.32783 1.87571 1.19698C1.82103 1.06612 1.73967 0.948722 1.63706 0.852627C1.53446 0.756532 1.41298 0.683958 1.28075 0.63976C1.14852 0.595562 1.00859 0.58076 0.870324 0.596342ZM27.7518 11.6058C27.6234 11.612 27.4976 11.6439 27.3813 11.6998C27.2651 11.7557 27.1607 11.8345 27.0742 11.9316C26.9877 12.0288 26.9208 12.1424 26.8773 12.266C26.8337 12.3897 26.8144 12.5209 26.8204 12.6521C26.8264 12.7834 26.8576 12.9122 26.9123 13.0311C26.967 13.15 27.044 13.2567 27.139 13.3452C27.234 13.4336 27.3451 13.5021 27.4659 13.5466C27.5868 13.5912 27.715 13.6109 27.8433 13.6047H32.3923L25.1415 21.366C24.7716 21.1921 24.366 21.1005 23.9355 21.1005C23.2789 21.1005 22.6711 21.33 22.1801 21.7096L19.4477 19.8356C19.5069 19.5996 19.5393 19.3553 19.5393 19.1017C19.5393 17.4575 18.2155 16.1033 16.6084 16.1033C15.0013 16.1033 13.6775 17.4575 13.6775 19.1017C13.6775 19.586 13.7949 20.0378 13.9981 20.4447L9.73921 24.989C9.31299 24.7402 8.82571 24.5986 8.30431 24.5986C6.69722 24.5986 5.37346 25.9528 5.37346 27.5969C5.37346 29.241 6.69722 30.5952 8.30431 30.5952C9.9114 30.5952 11.2352 29.241 11.2352 27.5969C11.2352 27.2112 11.169 26.8438 11.0367 26.5038L15.4025 21.8345C15.7723 22.0084 16.1779 22.1 16.6084 22.1C17.2651 22.1 17.8728 21.8705 18.3639 21.4909L21.0963 23.3649C21.0371 23.6009 21.0047 23.8452 21.0047 24.0989C21.0047 25.743 22.3284 27.0972 23.9355 27.0972C25.5426 27.0972 26.8664 25.743 26.8664 24.0989C26.8664 23.6145 26.749 23.1627 26.5458 22.7559L33.705 15.0883V19.6014C33.7032 19.7338 33.7271 19.8653 33.7754 19.9882C33.8237 20.1111 33.8954 20.223 33.9863 20.3173C34.0772 20.4116 34.1855 20.4865 34.3049 20.5376C34.4244 20.5887 34.5525 20.615 34.682 20.615C34.8115 20.615 34.9397 20.5887 35.0591 20.5376C35.1785 20.4865 35.2868 20.4116 35.3777 20.3173C35.4686 20.223 35.5403 20.1111 35.5886 19.9882C35.6369 19.8653 35.6608 19.7338 35.659 19.6014V12.6053C35.6589 12.3402 35.556 12.086 35.3728 11.8986C35.1896 11.7112 34.9411 11.6059 34.682 11.6058H27.8433C27.8128 11.6044 27.7823 11.6044 27.7518 11.6058ZM16.6084 18.1022C17.1595 18.1022 17.5854 18.5378 17.5854 19.1017C17.5854 19.6654 17.1595 20.1011 16.6084 20.1011C16.0573 20.1011 15.6314 19.6654 15.6314 19.1017C15.6314 18.5378 16.0573 18.1022 16.6084 18.1022ZM23.9355 23.0994C24.4867 23.0994 24.9125 23.535 24.9125 24.0989C24.9125 24.6627 24.4867 25.0983 23.9355 25.0983C23.3844 25.0983 22.9586 24.6627 22.9586 24.0989C22.9586 23.535 23.3844 23.0994 23.9355 23.0994ZM8.30431 26.5975C8.85543 26.5975 9.28126 27.0331 9.28126 27.5969C9.28126 28.1607 8.85543 28.5964 8.30431 28.5964C7.75319 28.5964 7.32736 28.1607 7.32736 27.5969C7.32736 27.0331 7.75319 26.5975 8.30431 26.5975Z" fill="#E8491E"/>
</svg>
