<svg width="31" height="37" viewBox="0 0 31 37" fill="none" xmlns="http://www.w3.org/2000/svg">
<path d="M21.5764 12.404C21.2678 14.3664 20.4913 16.0488 19.3198 17.218L14.7957 21.7333C13.7348 22.7922 13.7348 24.5152 14.7957 25.5741C15.3093 26.087 15.9927 26.3695 16.7199 26.3695C17.4471 26.3695 18.1305 26.087 18.6441 25.5741L28.6325 15.6055C29.1464 15.0926 29.4294 14.4105 29.4294 13.6851C29.4294 12.9596 29.1464 12.2776 28.6325 11.7647L18.6454 1.7971C18.6451 1.79676 18.6447 1.79607 18.6441 1.79572C18.1301 1.28281 17.4468 1 16.7199 1C15.993 1 15.3096 1.28281 14.7957 1.79572C13.7348 2.85462 13.7348 4.57766 14.7957 5.63656L21.5764 12.404ZM28.5524 11.8442C29.0449 12.3358 29.3162 12.9896 29.3162 13.6851C29.3162 14.3806 29.0449 15.034 28.5524 15.5259L18.5643 25.4949C18.0722 25.9864 17.4171 26.2572 16.7199 26.2572C16.023 26.2572 15.368 25.9864 14.8755 25.4949C13.8587 24.4797 13.8587 22.8283 14.8755 21.8135L19.3996 17.2982C20.2852 16.4143 20.9451 15.2572 21.3614 13.8587C21.4908 13.424 21.594 12.9689 21.6713 12.4994L21.672 12.5001L21.6892 12.3902C21.6913 12.3764 21.6934 12.3623 21.6955 12.3485C21.6982 12.331 21.7006 12.3134 21.7034 12.2958C21.7137 12.2263 21.7234 12.1563 21.7324 12.0861C21.7331 12.0795 21.7341 12.073 21.7351 12.0664C21.7386 12.0396 21.7417 12.0127 21.7452 11.9855C21.7486 11.9569 21.7521 11.9286 21.7552 11.9C21.7576 11.8801 21.7596 11.8601 21.7617 11.8401C21.7672 11.7908 21.7721 11.7416 21.7772 11.692C21.7772 11.6916 21.7772 11.6916 21.7772 11.6913C21.8439 11.0061 21.8573 10.2993 21.8149 9.58727C21.7748 8.91487 21.6854 8.24178 21.5505 7.58246C21.5405 7.53389 21.5305 7.48567 21.5201 7.43744C21.5149 7.41298 21.5098 7.38887 21.5046 7.36441C21.487 7.28415 21.4683 7.20389 21.4494 7.12397C21.4476 7.11605 21.4456 7.10847 21.4438 7.10055C21.4059 6.94278 21.3655 6.78571 21.322 6.63035C21.3179 6.61554 21.3134 6.60038 21.3092 6.58557C21.3082 6.58212 21.3072 6.57868 21.3065 6.57524C21.283 6.49291 21.2592 6.41127 21.2347 6.32997C21.233 6.32446 21.2312 6.31895 21.2299 6.31344C20.8309 5.00618 20.2607 3.83602 19.5497 2.8591L28.5524 11.8442ZM14.8755 1.87564C15.368 1.38374 16.023 1.11299 16.7199 1.11299C17.4167 1.11299 18.0715 1.38374 18.5643 1.87564C18.565 1.87633 18.5661 1.87736 18.5667 1.87805C18.5992 1.91078 18.6316 1.9435 18.6637 1.97691C18.672 1.98553 18.6803 1.99448 18.6889 2.00309C18.7165 2.03203 18.7441 2.06131 18.7714 2.09059C18.7762 2.09576 18.7814 2.10127 18.7863 2.10644C20.9862 4.48775 22.1289 8.59348 21.594 12.2624L14.8755 5.55698C13.8587 4.54218 13.8587 2.89045 14.8755 1.87564Z" fill="#E8491E" stroke="#FC5E33" stroke-width="1.2"/>
<path d="M8.8524 24.9061C9.16093 22.9436 9.93744 21.2612 11.1088 20.0921L15.6325 15.5767C16.1464 15.0638 16.4294 14.3817 16.4294 13.6563C16.4294 12.9308 16.1464 12.2487 15.6325 11.7358C15.119 11.2229 14.4357 10.9404 13.7085 10.9404C12.9813 10.9404 12.298 11.2229 11.7845 11.7358L1.79687 21.7046C1.28299 22.2175 1 22.8995 1 23.625C1 24.3505 1.28299 25.0325 1.79687 25.5454L11.7841 35.5142C12.298 36.0274 12.9813 36.3099 13.7082 36.3099C14.435 36.3099 15.1183 36.0271 15.6322 35.5142C16.1461 35.0012 16.429 34.3192 16.429 33.5937C16.429 32.8683 16.1461 32.1862 15.6322 31.6733L8.8524 24.9061ZM1.87694 25.4659C0.860229 24.4507 0.860229 22.7993 1.87694 21.7845L11.8642 11.8154C12.3563 11.3238 13.0114 11.0531 13.7085 11.0531C14.4056 11.0531 15.0603 11.3238 15.5528 11.8154C16.0453 12.307 16.3165 12.9608 16.3165 13.6563C16.3165 14.3518 16.0453 15.0052 15.5528 15.4971L11.029 20.0122C10.1435 20.8961 9.48361 22.0532 9.0674 23.4517C8.93798 23.8864 8.83479 24.3415 8.75749 24.811L8.7568 24.8103L8.73954 24.9202C8.73747 24.9333 8.73575 24.9464 8.73368 24.9591C8.73057 24.9798 8.72746 25.0005 8.7247 25.0208C8.71677 25.0756 8.70917 25.1307 8.70158 25.1855C8.69882 25.2054 8.69606 25.2254 8.69364 25.2454C8.69054 25.2699 8.68778 25.2943 8.68467 25.3191C8.68087 25.3505 8.67708 25.3815 8.67363 25.4128C8.67156 25.4307 8.66948 25.4486 8.66776 25.4669C8.58769 26.1989 8.56871 26.9578 8.61427 27.7225C8.6543 28.3963 8.74403 29.0708 8.87931 29.7311C8.88863 29.7766 8.8983 29.8221 8.90796 29.8675C8.91383 29.8941 8.91935 29.9209 8.92521 29.9475C8.94247 30.0264 8.96076 30.1052 8.9794 30.1834C8.98181 30.1934 8.98423 30.2031 8.98665 30.2131C9.00632 30.295 9.02702 30.377 9.04808 30.4587C9.04842 30.4604 9.04877 30.4621 9.04946 30.4638C9.06809 30.5358 9.08742 30.6078 9.10744 30.6795C9.11158 30.6936 9.11572 30.7077 9.11951 30.7222C9.12089 30.7277 9.12262 30.7332 9.12435 30.7387C9.14678 30.8183 9.1699 30.8975 9.19371 30.9761C9.19613 30.9836 9.1982 30.9909 9.20062 30.9985C9.25307 31.1704 9.30829 31.3402 9.36662 31.5072C9.36696 31.5079 9.36696 31.5086 9.36731 31.509C9.75176 32.6106 10.2622 33.6034 10.8793 34.4508L1.87694 25.4659ZM15.5525 35.4346C15.06 35.9265 14.4049 36.1973 13.7082 36.1973C13.0114 36.1973 12.3567 35.9265 11.8639 35.4346C11.83 35.4008 11.7962 35.3664 11.7627 35.3316C11.7558 35.3244 11.7486 35.3168 11.7417 35.3096C11.7124 35.2789 11.683 35.2482 11.6544 35.2169C11.6506 35.2131 11.6471 35.209 11.6433 35.2052C9.44254 32.8242 8.29952 28.7174 8.83445 25.0477L15.5525 31.7532C16.0449 32.2448 16.3162 32.8986 16.3162 33.5937C16.3165 34.2892 16.0453 34.943 15.5525 35.4346Z" fill="#E8491E" stroke="#FC5E33" stroke-width="1.2"/>
</svg>
