<svg width="20" height="23" viewBox="0 0 20 23" fill="none" xmlns="http://www.w3.org/2000/svg">
<path d="M17 10.6885H3C1.89543 10.6885 1 11.5839 1 12.6885V19.6885C1 20.793 1.89543 21.6885 3 21.6885H17C18.1046 21.6885 19 20.793 19 19.6885V12.6885C19 11.5839 18.1046 10.6885 17 10.6885Z" stroke="white" stroke-width="2" stroke-linecap="round" stroke-linejoin="round"/>
<path d="M5 10.6885V6.68848C5 5.36239 5.52678 4.09062 6.46447 3.15294C7.40215 2.21526 8.67392 1.68848 10 1.68848C11.3261 1.68848 12.5979 2.21526 13.5355 3.15294C14.4732 4.09062 15 5.36239 15 6.68848V10.6885" stroke="white" stroke-width="2" stroke-linecap="round" stroke-linejoin="round"/>
</svg>
