<svg width="282" height="49" viewBox="0 0 282 49" fill="none" xmlns="http://www.w3.org/2000/svg">
<g clip-path="url(#clip0_1101_2)">
<path d="M244.314 22.7208L250.286 10.7394C250.452 10.4067 250.53 10.0373 250.513 9.66623C250.495 9.29511 250.383 8.93457 250.187 8.61883C249.991 8.30309 249.717 8.04263 249.392 7.86215C249.066 7.68167 248.7 7.58717 248.328 7.58762H227.985C227.584 7.58745 227.193 7.71225 226.867 7.94458C226.541 8.1769 226.295 8.50516 226.165 8.8835L224.584 13.466C224.504 13.6993 224.481 13.9483 224.517 14.1923C224.552 14.4362 224.646 14.6681 224.79 14.8688C224.933 15.0694 225.123 15.233 225.342 15.346C225.562 15.4589 225.805 15.518 226.052 15.5183H238.305L236.189 19.7958L233.167 25.9058C233.076 26.089 233.037 26.2938 233.056 26.4974C233.074 26.701 233.148 26.8957 233.271 27.0598C233.393 27.2239 233.558 27.3511 233.748 27.4274C233.938 27.5036 234.146 27.526 234.347 27.4919C235.81 27.2399 237.315 27.4612 238.642 28.1237C239.97 28.7861 241.051 29.8549 241.726 31.1739C242.402 32.493 242.638 33.9931 242.398 35.4553C242.159 36.9174 241.458 38.265 240.397 39.301C239.336 40.337 237.971 41.0073 236.502 41.2139C235.032 41.4205 233.535 41.1526 232.228 40.4493C230.922 39.7461 229.875 38.6443 229.241 37.3049C228.607 35.9656 228.418 34.4588 228.702 33.0048C228.751 32.7612 228.745 32.5099 228.685 32.269C228.624 32.0281 228.511 31.8034 228.354 31.6113C228.196 31.4192 227.998 31.2643 227.773 31.1578C227.548 31.0514 227.302 30.9959 227.054 30.9955H222.793C222.368 30.9952 221.958 31.1496 221.639 31.4297C221.32 31.7099 221.115 32.0965 221.061 32.5171C220.974 33.2091 220.937 33.9064 220.949 34.6036C221.086 42.4893 227.57 48.872 235.47 48.9071C238.534 48.9205 241.524 47.9706 244.017 46.1923C246.509 44.414 248.377 41.8975 249.357 38.9998C250.336 36.102 250.376 32.97 249.472 30.0481C248.568 27.1261 246.765 24.5625 244.319 22.7208H244.314Z" fill="url(#paint0_linear_1101_2)"/>
<path d="M245.318 20.7086L250.302 10.712C250.467 10.3823 250.544 10.0161 250.528 9.64804C250.511 9.27997 250.4 8.9223 250.206 8.60898C250.012 8.29567 249.74 8.0371 249.418 7.85783C249.095 7.67856 248.732 7.58453 248.363 7.58469H228.046C227.628 7.58454 227.22 7.7149 226.879 7.95755C226.538 8.20021 226.281 8.54305 226.145 8.93822L224.599 13.4161C224.517 13.6551 224.493 13.9102 224.529 14.1602C224.566 14.4103 224.661 14.6481 224.808 14.8538C224.955 15.0595 225.149 15.2272 225.374 15.3429C225.599 15.4587 225.849 15.5191 226.102 15.5192H238.306C238.306 15.5192 247.861 14.2566 245.318 20.7086Z" fill="url(#paint1_linear_1101_2)"/>
<path d="M282 31.5956C282 28.169 280.982 24.8193 279.075 21.9702C277.168 19.121 274.457 16.9004 271.286 15.5891C268.114 14.2778 264.624 13.9347 261.258 14.6032C257.891 15.2717 254.798 16.9218 252.371 19.3448C249.944 21.7677 248.291 24.8548 247.621 28.2156C246.951 31.5764 247.295 35.0599 248.609 38.2257C249.922 41.3915 252.147 44.0973 255.001 46.001C257.855 47.9047 261.211 48.9208 264.644 48.9208C266.923 48.9208 269.18 48.4727 271.286 47.602C273.391 46.7314 275.305 45.4552 276.916 43.8464C278.528 42.2376 279.807 40.3277 280.679 38.2257C281.551 36.1237 282 33.8708 282 31.5956ZM254.698 31.5956C254.698 29.632 255.281 27.7124 256.374 26.0798C257.467 24.4471 259.02 23.1745 260.838 22.4231C262.655 21.6717 264.655 21.475 266.584 21.8581C268.513 22.2412 270.286 23.1868 271.677 24.5753C273.068 25.9638 274.015 27.7328 274.399 29.6587C274.782 31.5846 274.585 33.5808 273.833 35.3949C273.08 37.2091 271.805 38.7597 270.169 39.8506C268.534 40.9415 266.611 41.5238 264.644 41.5238C262.006 41.5238 259.476 40.4778 257.611 38.6159C255.746 36.754 254.698 34.2287 254.698 31.5956Z" fill="white"/>
<path d="M264.132 48.9922C267.159 49.0826 270.158 48.3802 272.829 46.955C275.501 45.5297 277.752 43.4311 279.359 40.868C280.945 38.3437 274.989 45.5854 269.96 40.0666C268.772 40.8161 267.438 41.3058 266.047 41.5034C264.655 41.7009 263.238 41.6019 261.887 41.2129C260.537 40.8238 259.285 40.1535 258.213 39.2462C257.141 38.3389 256.274 37.2151 255.668 35.9489C255.063 34.6827 254.734 33.3029 254.701 31.9003C254.669 30.4977 254.935 29.1043 255.482 27.8118C256.028 26.5193 256.843 25.3571 257.872 24.4018C258.902 23.4464 260.122 22.7196 261.453 22.2693C260.533 18.9915 262.6 15.0599 266.086 14.4081C265.778 14.3827 265.469 14.3654 265.157 14.3563C260.555 14.2207 256.089 15.9153 252.739 19.0672C249.39 22.2191 247.432 26.5701 247.296 31.1631C247.16 35.7561 248.857 40.2148 252.015 43.5584C255.173 46.902 259.531 48.8566 264.133 48.9922H264.132Z" fill="url(#paint2_linear_1101_2)"/>
<path d="M70.6588 12.2561C69.299 11.1674 67.3605 10.6152 64.8963 10.6152C62.4575 10.6152 60.0158 11.2016 57.6338 12.3743C56.3845 11.2094 54.494 10.6152 52.0063 10.6152C49.0242 10.6152 45.7757 11.3804 42.352 12.8903C42.27 12.9264 42.2004 12.9856 42.1515 13.0606C42.1026 13.1355 42.0767 13.2231 42.0769 13.3125V32.8025C42.0768 32.8632 42.0887 32.9232 42.1118 32.9793C42.135 33.0354 42.169 33.0864 42.2119 33.1293C42.2549 33.1722 42.3058 33.2063 42.362 33.2295C42.4181 33.2528 42.4783 33.2647 42.539 33.2647H46.089C46.2118 33.2647 46.3296 33.216 46.4165 33.1294C46.5033 33.0427 46.5521 32.9251 46.5521 32.8025V15.574C47.865 14.9104 49.4285 14.5752 51.2035 14.5752C52.6622 14.5752 53.7431 14.8586 54.4147 15.4166C55.0619 15.9561 55.3938 17.0927 55.3938 18.7961V32.8025C55.3936 32.8632 55.4055 32.9232 55.4286 32.9793C55.4518 33.0354 55.4858 33.0864 55.5287 33.1293C55.5717 33.1722 55.6227 33.2063 55.6788 33.2295C55.7349 33.2528 55.7951 33.2647 55.8559 33.2647H59.3637C59.4245 33.2647 59.4847 33.2528 59.5408 33.2295C59.5969 33.2063 59.6479 33.1722 59.6908 33.1293C59.7338 33.0864 59.7678 33.0354 59.7909 32.9793C59.8141 32.9232 59.826 32.8632 59.8258 32.8025V18.1638C59.8258 17.1054 59.7436 16.2444 59.5762 15.5486C61.0115 14.9062 62.5665 14.5732 64.1395 14.5713C65.5992 14.5713 66.6801 14.8547 67.3507 15.4127C67.9978 15.9512 68.3297 17.0888 68.3297 18.7922V32.8025C68.3296 32.8632 68.3415 32.9232 68.3646 32.9793C68.3878 33.0354 68.4218 33.0864 68.4647 33.1293C68.5077 33.1722 68.5586 33.2063 68.6148 33.2295C68.6709 33.2528 68.7311 33.2647 68.7918 33.2647H72.2919C72.4147 33.2647 72.5325 33.216 72.6193 33.1294C72.7062 33.0427 72.755 32.9251 72.755 32.8025V18.1638C72.755 15.357 72.0501 13.3702 70.6588 12.2561Z" fill="white"/>
<path d="M86.1433 10.6993C82.9046 10.6993 80.4051 11.8398 78.7153 14.0905C77.051 16.3001 76.2139 19.0189 76.2139 22.1716C76.2139 29.9244 79.7678 33.8551 86.7767 33.8551C89.6952 33.8551 92.1839 33.4641 94.1723 32.6823C94.2714 32.6447 94.3546 32.5743 94.408 32.4829C94.4614 32.3915 94.4819 32.2846 94.466 32.18L94.001 29.2687C93.9898 29.1993 93.963 29.1334 93.9224 29.076C93.8819 29.0186 93.8287 28.9712 93.767 28.9374C93.7055 28.9033 93.6369 28.8838 93.5666 28.8804C93.4963 28.877 93.4262 28.8898 93.3617 28.9178C91.7952 29.5921 90.033 29.9342 88.1346 29.9342C85.735 29.9342 83.9091 29.3478 82.7078 28.1868C81.581 27.1001 80.9779 25.3165 80.9113 22.8851H94.3838C94.4925 22.8851 94.5977 22.8469 94.6809 22.7772C94.7642 22.7075 94.8202 22.6107 94.839 22.5039C95.0681 21.2178 95.1856 20.0969 95.1856 19.1743C95.1856 16.5259 94.4132 14.4276 92.8908 12.9383C91.3684 11.4489 89.0999 10.6993 86.1433 10.6993ZM90.6204 19.1782H81.021C81.0703 18.8703 81.1483 18.5677 81.254 18.2742C81.4784 17.6642 81.7624 17.0776 82.1018 16.5229C82.4543 15.9366 83.0006 15.4294 83.728 15.0228C84.4564 14.6133 85.3111 14.4061 86.2686 14.4061C87.6471 14.4061 88.6946 14.7834 89.471 15.5584C90.2474 16.3333 90.6243 17.4396 90.6243 18.8811C90.6253 18.9964 90.6233 19.0942 90.6204 19.1782Z" fill="white"/>
<path d="M110.192 11.1313C109.521 10.9854 108.837 10.9113 108.15 10.9104C106.019 10.9104 104.242 11.5085 102.856 12.69L102.69 11.5583C102.673 11.4494 102.618 11.3501 102.534 11.2784C102.45 11.2067 102.343 11.1673 102.233 11.1674H99.1487C99.088 11.1674 99.0278 11.1794 98.9717 11.2026C98.9156 11.2259 98.8646 11.2599 98.8216 11.3029C98.7787 11.3458 98.7447 11.3968 98.7215 11.4529C98.6984 11.5089 98.6865 11.569 98.6866 11.6297V32.8074C98.6866 32.93 98.7354 33.0476 98.8223 33.1343C98.9091 33.221 99.0269 33.2697 99.1497 33.2697H102.701C102.824 33.2697 102.941 33.221 103.028 33.1343C103.115 33.0476 103.164 32.93 103.164 32.8074V15.9766C104.045 15.2984 105.452 14.9554 107.35 14.9554C108.083 14.9535 108.814 15.0344 109.528 15.1968C109.591 15.2115 109.655 15.213 109.718 15.201C109.781 15.1891 109.84 15.164 109.893 15.1274C109.945 15.0915 109.99 15.0451 110.024 14.9911C110.057 14.9371 110.079 14.8767 110.088 14.8137L110.554 11.6492C110.57 11.5333 110.542 11.4153 110.475 11.3191C110.408 11.223 110.307 11.1558 110.192 11.1313Z" fill="white"/>
<path d="M127.769 29.3381C127.756 29.2721 127.729 29.2097 127.689 29.1553C127.65 29.1009 127.599 29.0559 127.54 29.0233C127.481 28.9907 127.416 28.9713 127.348 28.9666C127.281 28.9619 127.214 28.9719 127.151 28.996C125.519 29.6324 123.785 29.9653 122.033 29.9782C120.233 29.9782 118.795 29.384 117.635 28.1614C116.475 26.9388 115.903 24.9618 115.903 22.2557C115.903 19.575 116.465 17.6087 117.576 16.4096C118.687 15.2104 120.039 14.6172 121.695 14.6172C123.495 14.6172 125.153 14.8655 126.62 15.3531C126.68 15.373 126.744 15.3803 126.807 15.3748C126.87 15.3692 126.931 15.3509 126.986 15.3209C127.042 15.2908 127.091 15.2498 127.13 15.2002C127.169 15.1506 127.198 15.0936 127.214 15.0326L127.931 12.2903C127.961 12.1773 127.947 12.0572 127.891 11.9543C127.835 11.8514 127.743 11.7735 127.632 11.7362C125.51 11.0199 123.484 10.6612 121.61 10.6612C118.737 10.6612 116.248 11.6551 114.21 13.6165C112.173 15.5779 111.131 18.4902 111.131 22.2596C111.131 26.114 112.153 29.0439 114.166 30.9682C116.179 32.8924 118.779 33.859 121.901 33.859C123.692 33.859 125.749 33.4524 128.014 32.651C128.118 32.6142 128.206 32.5409 128.261 32.4447C128.316 32.3485 128.334 32.2358 128.312 32.1272L127.769 29.3381Z" fill="white"/>
<path d="M145.407 12.7154C144.153 11.4332 142.1 10.7834 139.307 10.7834C138.3 10.7834 137.009 10.9133 135.47 11.1743C133.931 11.4352 132.617 11.7831 131.602 12.218C131.501 12.261 131.418 12.3386 131.37 12.4367C131.321 12.5349 131.309 12.6473 131.335 12.7536L132.012 15.4538C132.027 15.513 132.053 15.5688 132.089 15.6178C132.126 15.6668 132.172 15.708 132.224 15.7392C132.331 15.8013 132.458 15.8189 132.577 15.788C135.232 15.099 137.325 14.7492 138.8 14.7492C140.392 14.7492 141.459 15.0678 141.97 15.6962C142.503 16.3539 142.774 17.4406 142.774 18.928V20.8973C141.393 20.5451 139.972 20.3662 138.546 20.3646C137.014 20.3646 135.626 20.5493 134.419 20.9119C133.166 21.2891 132.076 22.026 131.176 23.104C130.263 24.1975 129.805 25.6166 129.805 27.3229C129.805 29.5931 130.646 31.2653 132.307 32.2934C133.895 33.2765 135.854 33.7759 138.129 33.7759C141.262 33.7759 144.247 33.2873 146.989 32.3149C147.079 32.2831 147.157 32.2242 147.213 32.1464C147.268 32.0685 147.298 31.9754 147.298 31.88V18.7541C147.293 16.0275 146.659 13.9947 145.407 12.7154ZM142.774 29.6762C141.55 30.0229 140.283 30.1957 139.011 30.1893C134.36 30.1893 134.36 27.9972 134.36 27.277C134.36 26.0583 134.813 25.1866 135.747 24.61C136.739 23.9982 137.993 23.6884 139.476 23.6884C140.59 23.6832 141.7 23.8285 142.774 24.1203V29.6762Z" fill="white"/>
<path d="M167.243 12.2336C165.884 11.1586 163.904 10.6152 161.357 10.6152C158.15 10.6152 154.803 11.3805 151.407 12.8904C151.325 12.9267 151.255 12.986 151.207 13.0609C151.158 13.1358 151.132 13.2232 151.132 13.3125V32.8025C151.132 32.9251 151.18 33.0427 151.267 33.1294C151.354 33.2161 151.472 33.2648 151.595 33.2648H155.145C155.205 33.2648 155.266 33.2528 155.322 33.2296C155.378 33.2063 155.429 33.1722 155.472 33.1293C155.515 33.0864 155.549 33.0354 155.572 32.9793C155.595 32.9233 155.607 32.8632 155.607 32.8025V15.5202C157.318 14.8554 159.14 14.5205 160.977 14.5332C162.261 14.5332 163.254 14.8342 163.924 15.4284C164.578 16.0098 164.909 17.1875 164.909 18.9231V32.8006C164.909 32.8612 164.921 32.9213 164.944 32.9774C164.968 33.0335 165.002 33.0844 165.044 33.1274C165.087 33.1703 165.138 33.2044 165.195 33.2276C165.251 33.2508 165.311 33.2628 165.372 33.2628H168.883C168.944 33.2628 169.004 33.2508 169.06 33.2276C169.117 33.2044 169.168 33.1703 169.21 33.1274C169.253 33.0844 169.287 33.0335 169.311 32.9774C169.334 32.9213 169.346 32.8612 169.345 32.8006V18.2899C169.342 15.3707 168.636 13.3321 167.243 12.2336ZM182.73 10.6993C179.492 10.6993 176.993 11.8398 175.302 14.0905C173.638 16.3001 172.8 19.0189 172.8 22.1716C172.8 29.9244 176.354 33.855 183.364 33.855C186.283 33.855 188.771 33.4641 190.76 32.6823C190.858 32.6435 190.94 32.5726 190.992 32.4814C191.044 32.3901 191.064 32.2839 191.048 32.18L190.583 29.2686C190.572 29.1993 190.545 29.1334 190.504 29.0759C190.464 29.0185 190.411 28.971 190.349 28.9372C190.287 28.9033 190.219 28.884 190.148 28.8806C190.078 28.8773 190.008 28.89 189.943 28.9178C188.377 29.5921 186.615 29.9342 184.716 29.9342C182.317 29.9342 180.491 29.3478 179.29 28.1868C178.164 27.1001 177.56 25.3165 177.493 22.885H190.971C191.08 22.8852 191.185 22.8471 191.268 22.7773C191.351 22.7076 191.407 22.6107 191.426 22.5039C191.637 21.4061 191.753 20.2921 191.772 19.1743C191.772 16.5259 191.001 14.4286 189.478 12.9382C187.956 11.4479 185.688 10.6993 182.73 10.6993ZM187.208 19.1782H177.609C177.658 18.87 177.736 18.567 177.842 18.2732C178.066 17.6634 178.35 17.0771 178.69 16.5229C179.041 15.9366 179.587 15.4293 180.316 15.0228C181.044 14.6162 181.9 14.4061 182.861 14.4061C184.239 14.4061 185.286 14.7834 186.063 15.5583C186.841 16.3333 187.217 17.4396 187.217 18.8811C187.213 18.9964 187.211 19.0942 187.208 19.1782ZM206.513 14.9124C206.62 14.9125 206.724 14.8753 206.806 14.8071C206.889 14.739 206.946 14.6442 206.966 14.539L207.515 11.7127C207.528 11.646 207.526 11.5772 207.509 11.5113C207.493 11.4454 207.461 11.384 207.418 11.3315C207.375 11.279 207.32 11.2367 207.259 11.2077C207.197 11.1786 207.13 11.1636 207.062 11.1635H200.506V5.80311C200.506 5.68077 200.457 5.56344 200.371 5.47693C200.284 5.39043 200.167 5.34183 200.044 5.34183H196.452C196.329 5.34183 196.212 5.39043 196.125 5.47693C196.039 5.56344 195.99 5.68077 195.99 5.80311V11.1635H193.578C193.455 11.1635 193.337 11.2121 193.251 11.2986C193.164 11.3851 193.115 11.5024 193.115 11.6248V14.4511C193.115 14.5734 193.164 14.6908 193.251 14.7773C193.337 14.8638 193.455 14.9124 193.578 14.9124H195.99V27.3639C195.99 29.6977 196.409 31.2955 197.27 32.2503C198.132 33.2051 199.757 33.6889 202.199 33.6889C203.543 33.6889 205.046 33.3957 206.666 32.8181C206.771 32.7801 206.858 32.7058 206.912 32.6089C206.966 32.512 206.983 32.3989 206.96 32.2904L206.411 29.6332C206.397 29.5688 206.37 29.508 206.331 29.455C206.293 29.4019 206.243 29.3577 206.186 29.3253C206.129 29.2925 206.065 29.2724 205.999 29.2663C205.934 29.2602 205.868 29.2684 205.806 29.2901C204.564 29.7211 203.393 29.9391 202.324 29.9391C201.935 29.9523 201.546 29.898 201.176 29.7788C201.076 29.7487 200.984 29.699 200.903 29.6327C200.823 29.5664 200.757 29.4849 200.709 29.3928C200.604 29.1967 200.534 28.9841 200.5 28.7644C200.469 28.4396 200.456 28.1133 200.461 27.7871V14.9124H206.513Z" fill="url(#paint3_linear_1101_2)"/>
<path d="M11.6789 12.9431H4.05908C2.98254 12.9431 1.9501 13.37 1.18888 14.1299C0.427651 14.8898 0 15.9204 0 16.995L0 24.6012L11.6789 12.9431Z" fill="white"/>
<path d="M22.4444 33.4397H30.0642C30.5972 33.4398 31.125 33.3351 31.6174 33.1316C32.1099 32.9281 32.5574 32.6297 32.9343 32.2536C33.3113 31.8774 33.6103 31.4308 33.8143 30.9393C34.0183 30.4477 34.1233 29.9209 34.1233 29.3888V21.7827L22.4444 33.4397Z" fill="white"/>
<path d="M30.6154 20.132C30.1546 20.1329 29.6982 20.0427 29.2724 19.8668C28.8466 19.6908 28.4599 19.4326 28.1345 19.1069L14.9851 5.97903C14.6593 5.65389 14.4009 5.26787 14.2245 4.84302C14.0482 4.41817 13.9574 3.96281 13.9573 3.50294C13.9573 2.57419 14.3268 1.68344 14.9846 1.02665C15.6424 0.369857 16.5347 0.000824077 17.4651 0.000732439C18.3956 0.000640801 19.2879 0.369498 19.9459 1.02616L33.0914 14.1521C33.5825 14.6414 33.9172 15.2651 34.0532 15.9443C34.1891 16.6236 34.1202 17.3278 33.8552 17.9679C33.5902 18.6081 33.1409 19.1554 32.5642 19.5406C31.9875 19.9258 31.3093 20.1316 30.6154 20.132Z" fill="white"/>
<path d="M33.0914 14.152L30.0789 11.141L19.9459 1.02615C24.8968 5.9673 25.7369 16.5454 20.9406 21.3331L14.9851 27.2779C14.3271 27.9346 13.9574 28.8253 13.9573 29.754C13.9573 30.6828 14.3268 31.5735 14.9846 32.2303C15.6424 32.8871 16.5347 33.2561 17.4651 33.2562C18.3956 33.2563 19.2879 32.8875 19.9459 32.2308L33.0914 19.1049C33.4172 18.7797 33.6757 18.3937 33.8521 17.9688C34.0284 17.5438 34.1192 17.0884 34.1192 16.6285C34.1192 16.1685 34.0284 15.7131 33.8521 15.2882C33.6757 14.8633 33.4172 14.4772 33.0914 14.152Z" fill="url(#paint4_linear_1101_2)"/>
<path d="M3.50788 26.2528C3.96868 26.252 4.42508 26.3422 4.85084 26.5181C5.2766 26.6941 5.66332 26.9523 5.98875 27.2779L19.1382 40.4048C19.7883 41.063 20.1513 41.9512 20.1481 42.8756C20.1448 43.8 19.7755 44.6856 19.1206 45.3392C18.4658 45.9928 17.5787 46.3615 16.6526 46.3648C15.7266 46.3681 14.8368 46.0057 14.1774 45.3567L1.02701 32.2308C0.53625 31.7411 0.20202 31.1171 0.0665968 30.4377C-0.0688263 29.7584 0.000642897 29.0542 0.266216 28.4142C0.53179 27.7743 0.981536 27.2274 1.55856 26.8426C2.13559 26.4579 2.81396 26.2526 3.50788 26.2528Z" fill="white"/>
<path d="M1.027 32.2308L4.04439 35.2418L14.1774 45.3567C9.22642 40.4155 8.3864 29.8374 13.1827 25.0497L19.1382 19.1049C19.4639 18.7798 19.7224 18.3938 19.8987 17.9689C20.0751 17.5441 20.1659 17.0887 20.1659 16.6288C20.166 16.169 20.0753 15.7136 19.899 15.2887C19.7227 14.8638 19.4644 14.4777 19.1386 14.1525C18.8129 13.8273 18.4262 13.5693 18.0006 13.3933C17.575 13.2173 17.1188 13.1267 16.6581 13.1266C16.1974 13.1266 15.7412 13.2171 15.3156 13.393C14.8899 13.569 14.5032 13.8269 14.1774 14.152L1.027 27.2779C0.369368 27.9349 -4.57764e-05 28.8256 -4.57764e-05 29.7544C-4.57764e-05 30.6831 0.369368 31.5738 1.027 32.2308Z" fill="url(#paint5_linear_1101_2)"/>
<path d="M112.138 41.127H111.131L111.216 40.4185H112.223L112.276 39.9963C112.36 39.3122 112.575 38.8258 112.922 38.5372C113.268 38.2486 113.752 38.1043 114.372 38.1043C114.734 38.1037 115.095 38.1427 115.449 38.2206L115.216 38.9174C114.891 38.8741 114.564 38.8496 114.237 38.8441C113.905 38.8441 113.654 38.9216 113.485 39.0767C113.315 39.2317 113.202 39.5275 113.146 39.964L113.092 40.4185H114.617L114.532 41.127H113.008L112.447 45.7251H111.579L112.138 41.127Z" fill="white"/>
<path d="M115 45.2335C114.687 44.8075 114.594 44.0908 114.72 43.0835C114.84 42.0978 115.129 41.386 115.589 40.9482C116.048 40.5103 116.655 40.2918 117.41 40.2924C118.166 40.2924 118.706 40.5074 119.03 40.9374C119.354 41.3674 119.457 42.0792 119.337 43.0728C119.104 44.94 118.215 45.8737 116.669 45.8737C115.871 45.873 115.315 45.6596 115 45.2335ZM116.211 41.4603C115.918 41.7593 115.722 42.3001 115.624 43.0825C115.533 43.8292 115.584 44.3612 115.778 44.6785C115.971 44.9957 116.304 45.1544 116.778 45.1544C116.983 45.1561 117.185 45.1133 117.371 45.0289C117.557 44.9445 117.722 44.8206 117.855 44.6657C118.151 44.34 118.347 43.8132 118.443 43.0855C118.541 42.2893 118.492 41.745 118.295 41.4524C118.098 41.1599 117.766 41.0136 117.299 41.0136C117.097 41.0085 116.895 41.0456 116.708 41.1225C116.521 41.1994 116.352 41.3144 116.211 41.4603Z" fill="white"/>
<path d="M123.105 41.2013C122.924 41.1581 122.739 41.1368 122.554 41.1378C122.045 41.1378 121.653 41.2433 121.379 41.4544L120.86 45.7251H120.002L120.647 40.4185H121.4L121.411 40.9267C121.785 40.5455 122.265 40.3553 122.851 40.3559C123.004 40.3545 123.157 40.3719 123.306 40.4077L123.105 41.2013Z" fill="white"/>
<path d="M125.452 44.7733C125.865 44.9614 126.312 45.0591 126.765 45.0596C127.053 45.0739 127.338 44.998 127.581 44.8426C127.673 44.786 127.751 44.7095 127.81 44.6189C127.868 44.5283 127.906 44.4258 127.92 44.3188C127.937 44.2171 127.928 44.1127 127.895 44.015C127.862 43.9174 127.805 43.8293 127.73 43.7588C127.56 43.6024 127.36 43.482 127.142 43.4051C126.906 43.3171 126.671 43.2236 126.438 43.1246C126.206 43.0264 126.008 42.8631 125.867 42.6545C125.713 42.4144 125.657 42.1254 125.708 41.8453C125.729 41.6208 125.796 41.403 125.905 41.2057C126.015 41.0084 126.164 40.8359 126.343 40.699C126.711 40.4136 127.173 40.2709 127.731 40.2709C128.192 40.2574 128.65 40.3553 129.065 40.5563L128.811 41.2218C128.456 41.1012 128.084 41.0407 127.709 41.043C127.01 41.043 126.629 41.286 126.566 41.772C126.549 41.871 126.558 41.9727 126.592 42.0671C126.627 42.1615 126.685 42.2454 126.761 42.3105C126.937 42.4611 127.14 42.5759 127.36 42.6486C127.599 42.7337 127.838 42.8275 128.074 42.9291C128.307 43.0286 128.508 43.1919 128.652 43.4002C128.805 43.6342 128.862 43.918 128.811 44.1927C128.755 44.6563 128.521 45.0803 128.159 45.3762C127.782 45.702 127.275 45.8649 126.64 45.8649C126.345 45.8649 126.051 45.8257 125.766 45.7486C125.537 45.696 125.321 45.6026 125.125 45.473L125.452 44.7733Z" fill="white"/>
<path d="M133.488 45.4925C132.794 45.7348 132.064 45.8565 131.329 45.8522C130.777 45.8522 130.337 45.7359 130.004 45.5033C129.671 45.2707 129.538 44.8934 129.603 44.3726C129.635 44.0072 129.786 43.6623 130.031 43.3894C130.245 43.15 130.519 42.9727 130.825 42.8763C131.147 42.7843 131.481 42.7399 131.815 42.7444C132.197 42.7471 132.577 42.793 132.948 42.8812L133.022 42.2479C133.072 41.8453 133.031 41.5521 132.901 41.3684C132.771 41.1847 132.497 41.0889 132.08 41.0889C131.721 41.0889 131.195 41.1768 130.502 41.3527L130.428 40.6765C130.733 40.5568 131.051 40.4716 131.376 40.4224C131.682 40.3656 131.992 40.3329 132.303 40.3246C132.952 40.3246 133.399 40.4745 133.642 40.7742C133.886 41.0739 133.968 41.5511 133.891 42.2059L133.488 45.4925ZM132.875 43.4627C132.577 43.387 132.27 43.3479 131.963 43.3464C131.617 43.3376 131.275 43.4217 130.973 43.5897C130.838 43.6664 130.723 43.7748 130.639 43.9055C130.555 44.0363 130.505 44.1855 130.492 44.3403C130.449 44.6569 130.54 44.8778 130.762 45.0009C131.033 45.135 131.333 45.1986 131.635 45.1857C131.991 45.1874 132.344 45.134 132.684 45.0273L132.875 43.4627Z" fill="white"/>
<path d="M136.515 38.3261L135.753 44.6042C135.703 44.9501 135.834 45.1221 136.144 45.1221C136.361 45.1154 136.575 45.0762 136.78 45.0058L136.8 45.6831C136.495 45.7963 136.173 45.8603 135.848 45.8727C135.1 45.8727 134.772 45.471 134.863 44.6677L135.636 38.3261H136.515Z" fill="white"/>
<path d="M137.826 43.0611C137.905 42.342 138.194 41.6621 138.658 41.1065C139.115 40.5709 139.716 40.3032 140.463 40.3032C141.156 40.3032 141.655 40.4794 141.962 40.8319C142.269 41.1843 142.383 41.6775 142.306 42.3115C142.265 42.5868 142.205 42.8588 142.125 43.1256H138.737C138.653 43.8305 138.748 44.3397 139.023 44.653C139.298 44.9664 139.742 45.1231 140.357 45.1231C140.822 45.1247 141.283 45.035 141.713 44.8593L141.723 45.5883C141.153 45.7916 140.55 45.8883 139.944 45.8737C138.307 45.873 137.601 44.9355 137.826 43.0611ZM139.717 41.169C139.523 41.2684 139.356 41.4116 139.227 41.5873C139.123 41.7317 139.033 41.8854 138.957 42.0466C138.901 42.1672 138.861 42.2952 138.841 42.4268H141.393L141.425 42.2372C141.474 41.8424 141.407 41.5375 141.224 41.3225C141.04 41.1075 140.768 41 140.408 41C140.167 40.9975 139.93 41.0557 139.717 41.169Z" fill="white"/>
<path d="M142.717 44.7733C143.129 44.9615 143.577 45.0592 144.03 45.0596C144.317 45.0738 144.603 44.9979 144.845 44.8426C144.937 44.7858 145.015 44.7093 145.074 44.6188C145.132 44.5282 145.17 44.4257 145.184 44.3188C145.2 44.2166 145.191 44.1119 145.157 44.0141C145.123 43.9164 145.065 43.8287 144.988 43.7588C144.819 43.6021 144.619 43.4817 144.401 43.4051C144.164 43.3171 143.93 43.2236 143.697 43.1246C143.464 43.0267 143.266 42.8634 143.125 42.6545C142.971 42.4148 142.914 42.1254 142.966 41.8453C142.987 41.6209 143.055 41.4033 143.164 41.206C143.273 41.0087 143.422 40.8361 143.601 40.699C143.968 40.4136 144.431 40.2709 144.988 40.2709C145.449 40.2572 145.907 40.3551 146.323 40.5563L146.068 41.2218C145.714 41.1012 145.342 41.0407 144.968 41.043C144.269 41.043 143.887 41.286 143.824 41.772C143.807 41.871 143.816 41.9728 143.85 42.0672C143.885 42.1616 143.943 42.2455 144.02 42.3105C144.195 42.4613 144.398 42.5762 144.618 42.6486C144.858 42.734 145.096 42.8275 145.333 42.9291C145.566 43.0287 145.766 43.192 145.909 43.4002C146.064 43.6337 146.12 43.918 146.068 44.1928C146.012 44.6564 145.779 45.0806 145.417 45.3762C145.04 45.702 144.534 45.8649 143.897 45.8649C143.602 45.8649 143.309 45.8258 143.024 45.7486C142.796 45.696 142.579 45.6026 142.384 45.473L142.717 44.7733Z" fill="white"/>
<path d="M152.085 40.2817C152.699 40.2817 153.126 40.4367 153.367 40.7468C153.941 40.4531 154.575 40.294 155.22 40.2817C155.798 40.2817 156.227 40.4103 156.506 40.6677C156.786 40.925 156.884 41.3883 156.8 42.0574L156.352 45.7251H155.494L155.918 42.2157C155.974 41.7505 155.921 41.4388 155.758 41.2804C155.596 41.1221 155.324 41.043 154.944 41.043C154.497 41.0425 154.055 41.1427 153.652 41.3362C153.688 41.5746 153.688 41.817 153.652 42.0554L153.207 45.7232H152.359L152.783 42.2138C152.84 41.7486 152.785 41.4368 152.619 41.2785C152.453 41.1202 152.179 41.041 151.798 41.041C151.35 41.0327 150.907 41.1333 150.507 41.3342L149.977 45.7212H149.12L149.707 40.8348C150.588 40.466 151.38 40.2817 152.085 40.2817Z" fill="white"/>
<path d="M161.506 45.4925C160.812 45.7349 160.081 45.8566 159.346 45.8522C158.795 45.8522 158.354 45.7359 158.022 45.5033C157.69 45.2707 157.557 44.8925 157.624 44.3686C157.658 44.0035 157.808 43.6588 158.053 43.3855C158.267 43.1463 158.541 42.969 158.847 42.8724C159.169 42.7806 159.503 42.7361 159.838 42.7405C160.22 42.7433 160.6 42.7892 160.971 42.8773L161.045 42.244C161.094 41.8414 161.054 41.5482 160.923 41.3645C160.792 41.1808 160.519 41.085 160.102 41.085C159.742 41.085 159.216 41.1729 158.525 41.3488L158.451 40.6726C158.756 40.5527 159.074 40.4675 159.398 40.4185C159.704 40.3617 160.014 40.329 160.325 40.3207C160.977 40.3207 161.424 40.4706 161.664 40.7703C161.904 41.07 161.987 41.5472 161.914 42.202L161.506 45.4925ZM160.892 43.4627C160.594 43.387 160.288 43.3479 159.981 43.3464C159.637 43.3374 159.296 43.4204 158.995 43.5868C158.86 43.6634 158.745 43.7718 158.661 43.9026C158.577 44.0334 158.527 44.1826 158.513 44.3374C158.47 44.654 158.56 44.8749 158.784 44.998C159.054 45.1321 159.355 45.1956 159.657 45.1827C160.013 45.1845 160.366 45.1311 160.706 45.0244L160.892 43.4627Z" fill="white"/>
<path d="M165.644 40.2817C166.245 40.2817 166.683 40.4077 166.963 40.6618C167.242 40.9159 167.338 41.3909 167.256 42.0887L166.811 45.7251H165.953L166.377 42.248C166.434 41.775 166.377 41.4544 166.218 41.2853C166.06 41.1163 165.801 41.0322 165.456 41.0322C164.958 41.03 164.465 41.1271 164.005 41.3176L163.464 45.7251H162.607L163.2 40.8387C164.06 40.4673 164.875 40.2817 165.644 40.2817Z" fill="white"/>
<path d="M171.963 45.4925C171.269 45.7349 170.539 45.8566 169.804 45.8522C169.252 45.8522 168.811 45.7359 168.48 45.5033C168.149 45.2707 168.015 44.8925 168.078 44.3686C168.11 44.0033 168.261 43.6584 168.506 43.3855C168.72 43.1461 168.994 42.9688 169.3 42.8724C169.622 42.7804 169.956 42.736 170.29 42.7405C170.672 42.7432 171.052 42.7891 171.424 42.8773L171.497 42.244C171.547 41.8414 171.506 41.5482 171.376 41.3645C171.246 41.1808 170.972 41.085 170.556 41.085C170.195 41.085 169.669 41.1729 168.977 41.3488L168.904 40.6726C169.209 40.5529 169.527 40.4676 169.851 40.4185C170.157 40.3616 170.467 40.329 170.778 40.3207C171.427 40.3207 171.874 40.4706 172.117 40.7703C172.361 41.07 172.443 41.5472 172.366 42.202L171.963 45.4925ZM171.35 43.4627C171.052 43.387 170.746 43.348 170.439 43.3464C170.093 43.3374 169.751 43.4214 169.449 43.5898C169.314 43.6665 169.199 43.7748 169.115 43.9056C169.031 44.0363 168.98 44.1855 168.967 44.3403C168.925 44.6569 169.015 44.8778 169.237 45.001C169.508 45.1349 169.808 45.1985 170.11 45.1857C170.466 45.1874 170.819 45.134 171.159 45.0273L171.35 43.4627Z" fill="white"/>
<path d="M176.266 40.4185C176.517 40.44 176.713 40.4507 176.854 40.4507C177.346 40.443 177.837 40.397 178.322 40.3129V40.9052C177.913 40.9821 177.499 41.035 177.084 41.0635C177.317 41.3814 177.405 41.7691 177.348 42.2264C177.271 42.8395 177.038 43.3011 176.65 43.6113C176.262 43.9214 175.768 44.0761 175.17 44.0755C174.96 44.0768 174.751 44.0592 174.545 44.0227C174.451 44.17 174.393 44.3374 174.376 44.5113C174.352 44.643 174.367 44.7786 174.418 44.9022H175.912C176.462 44.9101 176.861 45.0159 177.108 45.2199C177.356 45.4238 177.451 45.7408 177.394 46.1708C177.363 46.4584 177.269 46.7359 177.12 46.9841C176.971 47.2323 176.77 47.4452 176.531 47.6083C176.033 47.9615 175.379 48.1377 174.567 48.1371C173.909 48.1371 173.407 48.012 173.058 47.7618C172.891 47.6495 172.76 47.4917 172.68 47.3072C172.6 47.1227 172.575 46.9193 172.608 46.721C172.673 46.1789 173.054 45.7101 173.751 45.3147C173.631 45.1382 173.582 44.9235 173.613 44.7127C173.66 44.3659 173.829 44.0471 174.09 43.8136C173.575 43.5106 173.36 42.975 173.444 42.2069C173.516 41.6362 173.742 41.1905 174.122 40.87C174.503 40.5494 175.032 40.3892 175.71 40.3892C175.835 40.3872 176.016 40.3979 176.266 40.4185ZM174.281 45.6303C173.824 45.7926 173.566 46.1095 173.507 46.5812C173.479 46.8285 173.586 47.0249 173.826 47.1735C174.065 47.322 174.383 47.3953 174.778 47.3953C175.272 47.3953 175.669 47.3002 175.97 47.1099C176.117 47.017 176.241 46.8915 176.332 46.743C176.423 46.5945 176.478 46.4271 176.493 46.2538C176.513 46.1726 176.509 46.0876 176.483 46.0082C176.457 45.9289 176.409 45.8583 176.346 45.8043C176.215 45.7026 175.968 45.6482 175.604 45.6411L174.281 45.6303ZM174.413 43.104C174.551 43.3438 174.828 43.4634 175.244 43.4627C175.66 43.4621 175.972 43.3458 176.181 43.1138C176.405 42.8683 176.542 42.5568 176.573 42.2264C176.672 41.4303 176.337 41.0322 175.567 41.0322C174.811 41.0322 174.381 41.4267 174.275 42.2157C174.223 42.5189 174.271 42.8309 174.413 43.104Z" fill="white"/>
<path d="M178.822 43.0611C178.9 42.342 179.189 41.6621 179.653 41.1065C180.11 40.5709 180.711 40.3032 181.458 40.3032C182.149 40.3032 182.649 40.4794 182.956 40.8319C183.263 41.1843 183.378 41.6775 183.301 42.3115C183.26 42.5868 183.2 42.8588 183.121 43.1256H179.732C179.647 43.8305 179.743 44.3397 180.018 44.653C180.293 44.9664 180.738 45.1231 181.352 45.1231C181.817 45.1247 182.277 45.035 182.707 44.8593L182.718 45.5883C182.148 45.7915 181.545 45.8882 180.939 45.8737C179.298 45.873 178.592 44.9355 178.822 43.0611ZM180.712 41.169C180.518 41.2684 180.351 41.4116 180.223 41.5873C180.118 41.7317 180.028 41.8854 179.952 42.0466C179.895 42.167 179.856 42.2951 179.836 42.4268H182.394L182.425 42.2372C182.476 41.8424 182.41 41.5375 182.23 41.3225C182.049 41.1075 181.777 41 181.414 41C181.169 40.9955 180.928 41.0537 180.712 41.169Z" fill="white"/>
<path d="M186.645 40.2817C187.259 40.2817 187.685 40.4367 187.926 40.7468C188.5 40.4531 189.134 40.294 189.779 40.2817C190.357 40.2817 190.786 40.4103 191.065 40.6677C191.345 40.925 191.443 41.3883 191.359 42.0574L190.912 45.7251H190.054L190.478 42.2157C190.535 41.7505 190.478 41.4339 190.319 41.2804C190.161 41.127 189.885 41.043 189.504 41.043C189.056 41.0426 188.615 41.1428 188.211 41.3362C188.247 41.5746 188.247 41.817 188.211 42.0554L187.767 45.7232H186.92L187.343 42.2138C187.4 41.7486 187.345 41.4368 187.18 41.2785C187.013 41.1202 186.74 41.041 186.358 41.041C185.91 41.0327 185.467 41.1333 185.067 41.3342L184.537 45.7212H183.68L184.273 40.8348C185.148 40.466 185.939 40.2817 186.645 40.2817Z" fill="white"/>
<path d="M192.688 43.0611C192.766 42.342 193.055 41.6621 193.519 41.1065C193.976 40.5709 194.577 40.3032 195.324 40.3032C196.017 40.3032 196.516 40.4794 196.823 40.8319C197.13 41.1843 197.244 41.6775 197.167 42.3115C197.126 42.5868 197.066 42.8588 196.987 43.1256H193.598C193.514 43.8305 193.609 44.3397 193.884 44.653C194.159 44.9664 194.604 45.1231 195.218 45.1231C195.683 45.1248 196.143 45.0351 196.573 44.8593L196.584 45.5883C196.014 45.7916 195.411 45.8883 194.805 45.8737C193.168 45.873 192.462 44.9355 192.688 43.0611ZM194.578 41.169C194.384 41.2684 194.217 41.4116 194.089 41.5873C193.984 41.7317 193.894 41.8854 193.818 42.0466C193.761 42.167 193.722 42.2951 193.702 42.4268H196.254L196.287 42.2372C196.336 41.8424 196.268 41.5375 196.085 41.3225C195.901 41.1075 195.63 41 195.269 41C195.028 40.9974 194.791 41.0556 194.578 41.169Z" fill="white"/>
<path d="M200.585 40.2817C201.184 40.2817 201.624 40.4084 201.903 40.6618C202.183 40.9153 202.281 41.3909 202.197 42.0887L201.752 45.7251H200.895L201.318 42.248C201.375 41.775 201.322 41.4541 201.159 41.2853C200.997 41.1163 200.743 41.0322 200.397 41.0322C199.899 41.0299 199.406 41.127 198.947 41.3176L198.406 45.7251H197.549L198.142 40.8387C199 40.4673 199.814 40.2817 200.585 40.2817Z" fill="white"/>
<path d="M205.739 45.6196C205.395 45.7504 205.031 45.8218 204.662 45.8307C204.111 45.8307 203.754 45.7232 203.592 45.5082C203.43 45.2932 203.381 44.911 203.443 44.3618L203.846 41.127H203.15L203.235 40.4185H203.933L204.113 38.9604H204.994L204.814 40.4185H206.519L206.296 41.127H204.716L204.299 44.4664C204.292 44.5856 204.286 44.6951 204.283 44.7938C204.28 44.8401 204.29 44.8863 204.31 44.9279C204.33 44.9696 204.361 45.0052 204.4 45.0313C204.513 45.0998 204.644 45.1313 204.776 45.1212C205.087 45.1163 205.394 45.0591 205.686 44.9521L205.739 45.6196Z" fill="white"/>
<path d="M256.835 12.6001C256.521 12.6077 256.209 12.5428 255.924 12.4105C255.669 12.2851 255.474 12.0637 255.381 11.7948C255.274 11.5108 255.27 11.1358 255.368 10.67C255.454 10.2229 255.631 9.798 255.886 9.421C256.111 9.0917 256.409 8.81903 256.758 8.62451C257.09 8.43983 257.464 8.34358 257.844 8.34501C258.046 8.34099 258.247 8.36701 258.441 8.42221C258.614 8.47813 258.773 8.57231 258.906 8.69781L258.957 8.43101H260.123L259.26 12.5141H258.258L258.267 12.1349C258.066 12.2834 257.844 12.401 257.607 12.4838C257.358 12.5646 257.097 12.6039 256.835 12.6001ZM257.335 11.7469C257.702 11.7455 258.057 11.6143 258.337 11.3765L258.716 9.55879C258.63 9.44147 258.517 9.34706 258.386 9.28397C258.255 9.22088 258.111 9.19107 257.966 9.1972C257.234 9.1972 256.762 9.68812 256.55 10.67C256.458 11.0889 256.474 11.3733 256.598 11.5231C256.722 11.673 256.968 11.7476 257.335 11.7469Z" fill="white"/>
<path d="M260.252 12.5141L261.115 8.43103H262.192L262.158 8.82194C262.379 8.68395 262.615 8.57273 262.862 8.49064C263.129 8.39696 263.411 8.34905 263.694 8.34894C264.73 8.34894 265.138 8.8656 264.92 9.89891L264.368 12.518H263.203L263.746 9.9595C263.804 9.68391 263.793 9.48845 263.712 9.37313C263.631 9.25781 263.448 9.19917 263.164 9.19722C262.954 9.19652 262.746 9.23772 262.551 9.3184C262.365 9.39325 262.191 9.49464 262.034 9.61941L261.421 12.5141H260.252Z" fill="white"/>
<path d="M267.199 12.6001C266.467 12.6001 265.955 12.4148 265.663 12.044C265.37 11.6733 265.296 11.1495 265.439 10.4726C265.582 9.79434 265.863 9.27019 266.284 8.90013C266.704 8.53006 267.311 8.34503 268.105 8.34503C268.847 8.34503 269.365 8.53006 269.658 8.90013C269.952 9.27019 270.027 9.79434 269.883 10.4726C269.739 11.1502 269.46 11.674 269.045 12.044C268.631 12.4141 268.015 12.5995 267.199 12.6001ZM267.414 11.6092C267.788 11.6092 268.073 11.5251 268.269 11.3551C268.465 11.185 268.608 10.8918 268.7 10.4755C268.792 10.0592 268.775 9.76209 268.666 9.59595C268.556 9.42982 268.3 9.34186 267.898 9.34186C267.529 9.34186 267.246 9.42688 267.047 9.59595C266.848 9.76502 266.707 10.0602 266.62 10.4755C266.534 10.8909 266.537 11.1889 266.647 11.3551C266.756 11.5212 267.012 11.6092 267.414 11.6092Z" fill="white"/>
<path d="M271.643 12.6001C271.357 12.6016 271.071 12.58 270.788 12.5356C270.573 12.5052 270.362 12.4518 270.159 12.3763L270.365 11.4108C270.571 11.4982 270.787 11.5605 271.008 11.5965C271.235 11.6377 271.464 11.6593 271.694 11.661C271.902 11.6683 272.11 11.6509 272.314 11.6092C272.371 11.5979 272.423 11.5696 272.463 11.528C272.503 11.4864 272.53 11.4336 272.539 11.3766C272.568 11.2391 272.498 11.1388 272.327 11.0756C272.157 11.0124 271.908 10.9231 271.581 10.8078C271.289 10.7179 271.023 10.5567 270.809 10.3387C270.645 10.152 270.6 9.89207 270.676 9.55686C270.747 9.18992 270.961 8.86615 271.271 8.65679C271.581 8.44765 272.071 8.34308 272.739 8.34308C272.976 8.34386 273.211 8.36446 273.444 8.40465C273.629 8.4335 273.811 8.4783 273.988 8.53854L273.781 9.49432C273.625 9.41356 273.458 9.35688 273.285 9.32623C273.104 9.29034 272.921 9.27168 272.736 9.27052C272.535 9.26587 272.334 9.28324 272.137 9.32232C272.075 9.32855 272.016 9.35315 271.967 9.39298C271.919 9.43282 271.883 9.48611 271.865 9.54611C271.842 9.67218 271.902 9.76112 272.046 9.81291C272.19 9.86471 272.42 9.94191 272.736 10.0455C273.193 10.1954 273.487 10.3706 273.618 10.5713C273.753 10.7716 273.785 11.0365 273.715 11.3639C273.682 11.5521 273.61 11.7315 273.504 11.8907C273.397 12.0499 273.26 12.1856 273.099 12.2893C272.778 12.4972 272.293 12.6008 271.643 12.6001Z" fill="white"/>
</g>
<defs>
<linearGradient id="paint0_linear_1101_2" x1="225.461" y1="55.5038" x2="241.89" y2="13.2203" gradientUnits="userSpaceOnUse">
<stop stop-color="#C62026"/>
<stop offset="1" stop-color="#F1562B"/>
</linearGradient>
<linearGradient id="paint1_linear_1101_2" x1="237.431" y1="14.6377" x2="237.688" y2="6.65819" gradientUnits="userSpaceOnUse">
<stop stop-color="#C62026"/>
<stop offset="1" stop-color="#F1562B"/>
</linearGradient>
<linearGradient id="paint2_linear_1101_2" x1="283.749" y1="20.6666" x2="245.04" y2="43.0487" gradientUnits="userSpaceOnUse">
<stop offset="0.6" stop-color="#BCBEC0"/>
<stop offset="1" stop-color="white"/>
</linearGradient>
<linearGradient id="paint3_linear_1101_2" x1="160.009" y1="41.8561" x2="198.936" y2="2.86021" gradientUnits="userSpaceOnUse">
<stop stop-color="#C62026"/>
<stop offset="1" stop-color="#F1562B"/>
</linearGradient>
<linearGradient id="paint4_linear_1101_2" x1="9.65034" y1="26.9056" x2="27.7291" y2="8.79446" gradientUnits="userSpaceOnUse">
<stop stop-color="#C62026"/>
<stop offset="0.67" stop-color="#F1562B"/>
</linearGradient>
<linearGradient id="paint5_linear_1101_2" x1="6.36176" y1="37.555" x2="24.4405" y2="19.4439" gradientUnits="userSpaceOnUse">
<stop offset="0.21" stop-color="#F1562B"/>
<stop offset="1" stop-color="#C62026"/>
</linearGradient>
<clipPath id="clip0_1101_2">
<rect width="282" height="49" fill="white"/>
</clipPath>
</defs>
</svg>
