<svg width="32" height="31" viewBox="0 0 32 31" fill="none" xmlns="http://www.w3.org/2000/svg">
<path d="M30.1271 22.7722V27.0997C30.1287 27.5014 30.0464 27.8991 29.8855 28.2672C29.7245 28.6352 29.4885 28.9657 29.1924 29.2373C28.8964 29.5088 28.5469 29.7156 28.1664 29.8443C27.7858 29.973 27.3826 30.0208 26.9824 29.9847C22.5437 29.5023 18.2799 27.9856 14.5338 25.5562C11.0485 23.3415 8.09361 20.3866 5.87891 16.9013C3.44109 13.1382 1.92398 8.85371 1.45049 4.395C1.41444 3.9961 1.46185 3.59407 1.58969 3.2145C1.71753 2.83494 1.92301 2.48614 2.19303 2.19034C2.46306 1.89453 2.79172 1.65819 3.15809 1.49636C3.52446 1.33453 3.92051 1.25076 4.32103 1.25038H8.64848C9.34853 1.24349 10.0272 1.49139 10.558 1.94787C11.0888 2.40435 11.4355 3.03827 11.5334 3.73146C11.7161 5.11634 12.0548 6.47611 12.5432 7.78483C12.7373 8.30113 12.7793 8.86225 12.6642 9.40168C12.5492 9.94112 12.2819 10.4363 11.8941 10.8285L10.0621 12.6604C12.1156 16.2717 15.1057 19.2619 18.717 21.3153L20.549 19.4834C20.9412 19.0955 21.4363 18.8283 21.9758 18.7132C22.5152 18.5982 23.0763 18.6402 23.5926 18.8343C24.9013 19.3226 26.2611 19.6613 27.646 19.844C28.3467 19.9428 28.9866 20.2958 29.4441 20.8357C29.9015 21.3756 30.1446 22.0648 30.1271 22.7722Z" stroke="#FC5E33" stroke-width="2" stroke-linecap="round" stroke-linejoin="round"/>
</svg>
