<svg width="36" height="36" viewBox="0 0 36 36" fill="none" xmlns="http://www.w3.org/2000/svg">
<circle cx="17.5718" cy="18.1153" r="17.4825" fill="#FC5E33"/>
<g clip-path="url(#clip0)">
<path d="M12.9419 26.8562V15.0609H9.06057V26.8562H12.9419ZM11.0017 13.4494C12.3552 13.4494 13.1977 12.5437 13.1977 11.4118C13.1725 10.2544 12.3553 9.37378 11.0274 9.37378C9.69978 9.37378 8.83157 10.2544 8.83157 11.4118C8.83157 12.5437 9.67385 13.4494 10.9764 13.4494H11.0016H11.0017ZM15.0902 26.8562H18.9716V20.2691C18.9716 19.9166 18.9968 19.5644 19.0993 19.3124C19.3799 18.6081 20.0185 17.8786 21.0907 17.8786C22.4952 17.8786 23.0571 18.9602 23.0571 20.5459V26.8562H26.9382V20.0928C26.9382 16.4697 25.0234 14.7839 22.4697 14.7839C20.3758 14.7839 19.4565 15.9661 18.9458 16.7713H18.9717V15.0606H15.0903C15.1413 16.1674 15.0903 26.856 15.0903 26.856L15.0902 26.8562Z" fill="#FEAE99"/>
</g>
<defs>
<clipPath id="clip0">
<rect width="18.1068" height="17.4825" fill="white" transform="translate(8.8306 9.37402)"/>
</clipPath>
</defs>
</svg>
