<svg width="36" height="36" viewBox="0 0 36 36" fill="none" xmlns="http://www.w3.org/2000/svg">
<circle cx="17.7755" cy="18.1153" r="17.4825" fill="#FC5E33"/>
<path d="M21.5987 9.54388C22.4743 9.58414 23.0796 9.71283 23.639 9.92994C24.1693 10.1282 24.6494 10.4409 25.0452 10.8458C25.4501 11.2416 25.7628 11.7217 25.9611 12.2521C26.1782 12.8121 26.3069 13.4167 26.3471 14.2923C26.3967 15.3779 26.4025 15.7604 26.4025 18.1156C26.4025 20.4707 26.3967 20.8532 26.3471 21.9388C26.3069 22.8144 26.1782 23.4198 25.9611 23.9798C25.7627 24.5099 25.45 24.9897 25.0452 25.3853C24.6494 25.7902 24.1693 26.1029 23.639 26.3012C23.0789 26.5183 22.4743 26.647 21.5987 26.6872C20.5131 26.7369 20.1313 26.7426 17.7754 26.7426C15.4195 26.7426 15.0371 26.7369 13.9522 26.6872C13.0766 26.647 12.4712 26.5183 11.9112 26.3012C11.3811 26.1028 10.9013 25.7901 10.5057 25.3853C10.1008 24.9895 9.7881 24.5094 9.58982 23.9791C9.3727 23.419 9.24402 22.8144 9.20376 21.9388C9.15415 20.8547 9.1484 20.4722 9.1484 18.1156C9.1484 15.7597 9.15415 15.3765 9.20376 14.2923C9.24402 13.4167 9.3727 12.8114 9.58982 12.2521C9.7881 11.7217 10.1008 11.2416 10.5057 10.8458C10.9013 10.441 11.3811 10.1283 11.9112 9.92994C12.472 9.71283 13.0766 9.58414 13.9522 9.54388C15.0364 9.49428 15.4188 9.48853 17.7754 9.48853C20.1313 9.48853 20.5145 9.49428 21.5987 9.54388ZM17.7754 11.4059C15.4461 11.4059 15.0896 11.4109 14.0392 11.4591C13.3728 11.4893 12.9731 11.5741 12.6057 11.7172C12.293 11.8394 12.0938 11.9688 11.8609 12.201C11.628 12.4339 11.4985 12.6331 11.3771 12.9458C11.2347 13.3125 11.1492 13.7129 11.119 14.3793C11.0708 15.4297 11.0658 15.7863 11.0658 18.1156C11.0658 20.4449 11.0708 20.8015 11.119 21.8518C11.1492 22.5182 11.234 22.918 11.3771 23.2846C11.4993 23.598 11.6287 23.7972 11.8609 24.0301C12.0938 24.2631 12.293 24.3925 12.6057 24.514C12.9723 24.6563 13.3728 24.7419 14.0392 24.772C15.0903 24.8202 15.4469 24.8252 17.7754 24.8252C20.1047 24.8252 20.4606 24.8202 21.5117 24.772C22.1781 24.7419 22.5778 24.657 22.9452 24.514C23.2579 24.3917 23.4571 24.2623 23.69 24.0301C23.9229 23.7972 24.0523 23.598 24.1738 23.2853C24.3162 22.9187 24.4017 22.5182 24.4319 21.8518C24.4801 20.8007 24.4851 20.4441 24.4851 18.1156C24.4851 15.787 24.4801 15.4304 24.4319 14.3793C24.4017 13.7129 24.3169 13.3132 24.1738 12.9465C24.0722 12.6641 23.9066 12.4089 23.69 12.201C23.4821 11.9844 23.227 11.8188 22.9445 11.7172C22.5778 11.5748 22.1774 11.4893 21.5109 11.4591C20.4606 11.4109 20.104 11.4059 17.7747 11.4059H17.7754ZM17.7754 22.5887C16.5891 22.5887 15.4513 22.1174 14.6125 21.2785C13.7736 20.4397 13.3023 19.3019 13.3023 18.1156C13.3023 16.9292 13.7736 15.7915 14.6125 14.9526C15.4513 14.1137 16.5891 13.6424 17.7754 13.6424C18.9618 13.6424 20.0995 14.1137 20.9384 14.9526C21.7773 15.7915 22.2486 16.9292 22.2486 18.1156C22.2486 19.3019 21.7773 20.4397 20.9384 21.2785C20.0995 22.1174 18.9618 22.5887 17.7754 22.5887ZM17.7754 20.672C18.4535 20.672 19.1037 20.4027 19.5831 19.9233C20.0626 19.4438 20.3319 18.7936 20.3319 18.1156C20.3319 17.4375 20.0626 16.7873 19.5831 16.3079C19.1037 15.8284 18.4535 15.5591 17.7754 15.5591C17.0974 15.5591 16.4472 15.8284 15.9677 16.3079C15.4883 16.7873 15.219 17.4375 15.219 18.1156C15.219 18.7936 15.4883 19.4438 15.9677 19.9233C16.4472 20.4027 17.0974 20.672 17.7754 20.672ZM22.2486 14.6008C21.9943 14.6008 21.7505 14.4998 21.5707 14.32C21.3909 14.1402 21.2899 13.8963 21.2899 13.6421C21.2899 13.3878 21.3909 13.144 21.5707 12.9642C21.7505 12.7844 21.9943 12.6834 22.2486 12.6834C22.5028 12.6834 22.7467 12.7844 22.9264 12.9642C23.1062 13.144 23.2072 13.3878 23.2072 13.6421C23.2072 13.8963 23.1062 14.1402 22.9264 14.32C22.7467 14.4998 22.5028 14.6008 22.2486 14.6008Z" fill="#FEAE99"/>
</svg>
