<svg width="88" height="29" viewBox="0 0 88 29" fill="none" xmlns="http://www.w3.org/2000/svg">
<path d="M37.4717 24.9125C37.1676 25.2179 36.8256 25.5232 36.4456 25.7522C35.8374 26.0957 35.1534 26.2866 34.5073 26.2866C33.9752 26.2866 33.4431 26.1721 32.987 25.9813C32.531 25.7522 32.1129 25.4851 31.7709 25.1415C31.4288 24.7979 31.1248 24.3781 30.9347 23.92C30.7448 23.462 30.6307 22.9658 30.6307 22.4696C30.6307 21.9352 30.7448 21.4008 30.9727 20.9428C31.2008 20.4466 31.4668 20.0267 31.8469 19.6832C32.1889 19.3396 32.607 19.0724 33.1011 18.8434C33.5571 18.6526 34.0512 18.5381 34.5832 18.5381C34.9254 18.5381 35.2674 18.5762 35.6094 18.6907C35.9135 18.7671 36.2175 18.9198 36.4836 19.0724C36.6736 19.187 36.8636 19.3015 37.0536 19.4541C37.2057 19.6068 37.3956 19.7213 37.5097 19.9122C37.8137 20.2557 38.2698 20.4466 38.7639 20.4466H39.942C39.752 19.9122 39.486 19.416 39.1439 18.9962C38.8019 18.5381 38.3838 18.1182 37.8897 17.7747C37.7758 17.6983 37.6998 17.6602 37.5857 17.5838L37.5477 17.5456C37.5097 17.5075 37.4717 17.5075 37.3956 17.4693C37.0536 17.2785 36.7116 17.1258 36.3315 16.9731C35.7614 16.7822 35.1534 16.6677 34.5452 16.6677C34.5452 16.6677 34.5452 16.6677 34.5073 16.6677C33.7471 16.6677 32.987 16.8204 32.303 17.1258C32.1509 17.2021 31.9989 17.2785 31.8469 17.3548C31.3148 17.622 30.8588 18.0037 30.4407 18.3854C29.9086 18.9198 29.4906 19.5305 29.1865 20.2557C28.8824 20.9428 28.7305 21.7062 28.7305 22.4696C28.7305 23.2711 28.8824 23.9964 29.1865 24.6834C29.4906 25.3705 29.9086 25.9813 30.4407 26.5156C30.9727 27.0119 31.5809 27.4317 32.2649 27.737C32.949 28.0424 33.6712 28.1951 34.4693 28.1951C35.0773 28.1951 35.6855 28.0806 36.2555 27.9279C36.8256 27.737 37.3577 27.4698 37.8517 27.1264C38.3458 26.7828 38.7639 26.363 39.1059 25.9049C39.4479 25.4468 39.714 24.9506 39.904 24.4545H38.7259C38.2318 24.3781 37.7758 24.5689 37.4717 24.9125Z" fill="#FC5E33"/>
<path d="M50.8871 24.5307C50.6211 24.4544 49.4809 24.149 48.6448 25.0651C48.4928 25.2559 48.2648 25.4849 48.0367 25.6376C47.7327 25.8666 47.3906 26.0193 47.0486 26.172C46.6685 26.3247 46.2884 26.401 45.8324 26.401C45.4903 26.401 45.1483 26.3629 44.8062 26.2483C44.5022 26.172 44.1982 26.0193 43.9701 25.8666C43.7041 25.714 43.514 25.5231 43.3621 25.2941C43.21 25.0651 43.134 24.7979 43.134 24.5307C43.134 24.2253 43.248 23.9581 43.4001 23.7673C43.552 23.5383 43.7801 23.3856 44.0461 23.2329C44.3121 23.0802 44.5782 23.0039 44.8823 22.9276C45.1863 22.8894 45.4523 22.8512 45.7184 22.8512C46.0604 22.8512 46.4024 22.8894 46.7445 22.9276C47.0865 23.0039 47.4286 23.0421 47.7327 23.1184C48.0367 23.1947 48.3027 23.2329 48.5308 23.3093C49.1388 23.5001 50.089 23.5001 50.507 23.1947C50.6971 23.0421 50.8871 22.8512 50.9251 22.4695V21.4771V21.2862C50.9251 20.4465 50.773 19.7213 50.507 19.1487C50.241 18.5762 49.899 18.08 49.4809 17.6983C49.0629 17.3166 48.5688 17.0494 47.9987 16.8585C47.4286 16.6677 46.8205 16.5913 46.1745 16.5913C45.6424 16.5913 45.0722 16.6677 44.5782 16.8204C44.0461 16.973 43.5901 17.2021 43.172 17.5456C42.7539 17.8509 42.4119 18.2708 42.1459 18.7289C41.8798 19.1869 41.7278 19.7976 41.6898 20.4083H42.4499C43.0199 20.4083 43.4 20.103 43.552 19.874C43.7041 19.6831 44.0841 19.1106 44.5022 18.8434C44.7682 18.6907 45.0342 18.538 45.3763 18.4617C46.0224 18.309 46.7065 18.309 47.3526 18.4998C47.6946 18.6143 47.9607 18.767 48.2267 18.9579C48.4928 19.1487 48.6828 19.4159 48.8728 19.7213C49.0249 20.0266 49.1009 20.4083 49.1009 20.79C49.1009 21.2099 49.0629 21.5916 49.0629 21.5916L48.9488 21.5534C48.3407 21.3626 47.7327 21.2099 47.1245 21.1336C46.5165 21.0572 45.9844 21.0191 45.4523 21.0191C44.8442 21.0191 44.3121 21.0954 43.818 21.2099C43.324 21.3244 42.868 21.5534 42.5259 21.8206C42.1459 22.0878 41.8798 22.4695 41.6518 22.9276C41.4617 23.3856 41.3478 23.92 41.3478 24.5307C41.3478 25.1414 41.4617 25.6758 41.7278 26.1338C41.9558 26.5919 42.2979 26.9736 42.7159 27.2789C43.134 27.5843 43.5901 27.8133 44.0841 27.966C45.2243 28.3095 46.3644 28.2714 47.4286 27.8897C47.9987 27.6606 48.5308 27.3172 48.9488 26.7827L49.1009 26.63V26.9354C49.1009 27.4698 49.5569 27.9278 50.089 27.9278H50.9631V27.5843C50.9631 27.4698 50.9631 27.3553 50.9631 27.2408V24.5307H50.8871Z" fill="#FC5E33"/>
<path d="M27.3625 24.5307C27.0965 24.4544 25.9563 24.149 25.1202 25.0651C24.9681 25.2559 24.7401 25.4849 24.5121 25.6376C24.208 25.8666 23.866 26.0193 23.524 26.172C23.1439 26.3247 22.7639 26.401 22.3078 26.401C21.9658 26.401 21.6236 26.3629 21.2816 26.2483C20.9776 26.172 20.6736 26.0193 20.4455 25.8666C20.1795 25.714 19.9895 25.5231 19.8374 25.2941C19.6854 25.0651 19.6094 24.7979 19.6094 24.5307C19.6094 24.2253 19.7234 23.9581 19.8754 23.7673C20.0274 23.5383 20.2555 23.3856 20.5215 23.2329C20.7876 23.0802 21.0536 23.0039 21.3576 22.9276C21.6616 22.8894 21.9277 22.8512 22.1938 22.8512C22.5358 22.8512 22.8778 22.8894 23.2199 22.9276C23.562 23.0039 23.904 23.0421 24.208 23.1184C24.5121 23.1947 24.7782 23.2329 25.0061 23.3093C25.6143 23.5001 26.5644 23.5001 26.9824 23.1947C27.1725 23.0421 27.3625 22.8512 27.4005 22.4695V21.4771V21.2862C27.4005 20.4465 27.2485 19.7213 26.9824 19.1487C26.7164 18.5762 26.3744 18.08 25.9563 17.6983C25.5382 17.3166 25.0442 17.0494 24.474 16.8585C23.904 16.6677 23.2959 16.5913 22.6498 16.5913C22.1177 16.5913 21.5477 16.6677 21.0536 16.8204C20.5215 16.973 20.0654 17.2021 19.6474 17.5456C19.2293 17.8509 18.8873 18.2708 18.6213 18.7289C18.3553 19.1869 18.2032 19.7976 18.1652 20.4083H18.9253C19.4954 20.4083 19.8754 20.103 20.0274 19.874C20.1795 19.6831 20.5595 19.1106 20.9776 18.8434C21.2436 18.6907 21.5097 18.538 21.8517 18.4617C22.4978 18.309 23.1819 18.309 23.828 18.4998C24.17 18.6143 24.4361 18.767 24.7021 18.9579C24.9681 19.1487 25.1582 19.4159 25.3482 19.7213C25.5002 20.0266 25.5763 20.4083 25.5763 20.79C25.5763 21.2099 25.5382 21.5916 25.5382 21.5916L25.4242 21.5534C24.8162 21.3626 24.208 21.2099 23.6 21.1336C22.9919 21.0572 22.4598 21.0191 21.9277 21.0191C21.3196 21.0191 20.7876 21.0954 20.2935 21.2099C19.7994 21.3244 19.3433 21.5534 19.0013 21.8206C18.6213 22.0878 18.3553 22.4695 18.1272 22.9276C17.9372 23.3856 17.8232 23.92 17.8232 24.5307C17.8232 25.1414 17.9372 25.6758 18.2032 26.1338C18.4312 26.5919 18.7733 26.9736 19.1913 27.2789C19.6094 27.5843 20.0654 27.8133 20.5595 27.966C21.6997 28.3095 22.8399 28.2714 23.904 27.8897C24.474 27.6606 25.0061 27.3172 25.4242 26.7827L25.5763 26.63V26.9354C25.5763 27.4698 26.0323 27.9278 26.5644 27.9278H27.4385V27.5843C27.4385 27.4698 27.4385 27.3553 27.4385 27.2408V24.5307H27.3625Z" fill="#FC5E33"/>
<path d="M16.3788 22.3933C16.3788 18.6908 14.9346 16.8205 11.9701 16.7442C11.0201 16.7059 9.57581 16.9731 8.43568 18.1182L8.35967 18.1946L8.32166 18.1182C8.13164 17.851 7.86559 17.6602 7.59956 17.4312C6.57341 16.5914 4.3691 16.4006 3.00091 17.0495C1.67072 17.6984 1.13864 18.9961 0.986619 19.6833C0.796592 20.4084 0.720581 21.2863 0.720581 22.2788V26.134C0.720581 27.1646 1.51869 28.0043 2.54484 28.0425V21.1337C2.54484 19.7214 3.685 18.5382 5.12921 18.5382C6.53541 18.5382 7.71358 19.6833 7.71358 21.1337V26.0958C7.71358 27.1263 8.51168 27.9661 9.5378 28.0043V21.0574C9.5378 19.6833 10.64 18.5382 12.0462 18.5382C13.4524 18.5382 14.5545 19.645 14.5545 21.0574V26.134C14.5545 27.1646 15.3907 28.0425 16.4168 28.0806C16.3788 27.4699 16.3788 23.4621 16.3788 22.3933Z" fill="#FC5E33"/>
<path d="M52.2559 22.3551C52.2559 26.0576 53.7001 27.9279 56.6645 28.0043C57.6146 28.0424 59.0589 27.7753 60.199 26.6302L60.2751 26.5538L60.351 26.6302C60.5411 26.8973 60.8071 27.0881 61.0732 27.3172C62.0993 28.157 64.3036 28.3478 65.6718 27.6989C67.002 27.05 67.5341 25.7522 67.686 25.0651C67.8381 24.34 67.9521 23.5002 67.9521 22.4696V18.6145C67.9521 17.5838 67.154 16.7441 66.1278 16.7059V23.6147C66.1278 25.027 64.9877 26.2102 63.5435 26.2102C62.1373 26.2102 60.9591 25.0651 60.9591 23.6147V18.6526C60.9591 17.622 60.161 16.7822 59.1348 16.7441V23.6911C59.1348 25.0651 58.0327 26.2102 56.6265 26.2102C55.2583 26.2102 54.1182 25.1034 54.1182 23.6911V18.6145C54.1182 17.5838 53.2821 16.7059 52.2559 16.6677C52.2559 17.2785 52.2559 21.2864 52.2559 22.3551Z" fill="#FC5E33"/>
<path d="M87.1828 0.521799C87.1448 0.330949 86.9928 0.178268 86.8028 0.140098C86.6127 0.101928 86.4227 0.178268 86.3087 0.330948C83.1543 5.10221 75.6672 6.55267 75.5912 6.59084C74.489 6.78169 73.5008 7.16339 73.4629 7.20156C71.4106 8.04129 70.0044 12.8126 69.5103 14.8356C68.1421 13.3469 67.154 11.4766 66.6599 9.49174C66.6979 9.37725 66.7359 9.26276 66.6979 9.14827C66.6219 8.91919 66.3559 8.76652 66.0899 8.84286C65.7098 8.95742 65.3298 8.95742 64.9876 8.76652C65.0637 8.49933 65.2157 8.27031 65.4437 8.07946C65.5958 7.96495 65.6338 7.73593 65.5577 7.54508L64.6456 5.25489C65.2157 4.94952 65.7858 4.87319 66.3939 4.9877C68.4462 5.3694 70.1184 7.88861 70.1184 7.92678C70.1944 8.07946 70.3464 8.1558 70.4985 8.1558C70.5745 8.1558 70.6884 8.11763 70.7645 8.07946C70.9926 7.92678 71.0306 7.6596 70.9165 7.43058C70.8405 7.31607 69.0163 4.52965 66.5839 4.07161C65.6338 3.88076 64.7216 4.07161 63.8855 4.60599C63.8475 4.60599 63.8095 4.64416 63.7715 4.64416C63.7335 4.68233 63.6955 4.68233 63.6955 4.7205C63.6955 4.7205 63.6575 4.7205 63.6575 4.75868C63.6575 4.75868 63.6575 4.79684 63.6195 4.79684C62.8594 5.40757 62.4033 6.36182 62.4033 7.39241C62.4033 8.69018 63.1254 9.87345 64.3036 10.4079C64.3796 10.446 64.4176 10.446 64.4936 10.446C64.6076 10.446 64.7216 10.4079 64.7977 10.3315C64.9497 10.217 64.9876 10.0262 64.9497 9.83531C64.9497 9.79709 64.9497 9.75895 64.9117 9.72082C65.1397 9.79709 65.3678 9.83531 65.5958 9.83531C65.6338 9.83531 65.7098 9.83531 65.7478 9.83531C66.7359 13.8049 69.7384 17.2402 73.4249 18.6526C74.223 20.7519 75.3632 22.8513 76.4653 24.8743C76.5793 25.1033 76.6934 25.2942 76.8073 25.5232C74.8691 23.7292 72.9688 21.0955 71.7527 18.9961C71.6386 18.7671 71.3346 18.6907 71.1065 18.8053C70.8785 18.9198 70.8025 19.2251 70.9165 19.4541C72.5888 22.3932 75.4392 26.0576 77.9855 27.6607C78.0615 27.6989 78.1375 27.737 78.2516 27.737C78.3656 27.737 78.4796 27.6989 78.5556 27.6225C78.7077 27.4698 78.7457 27.2408 78.6696 27.05C78.2136 26.1721 77.7575 25.2942 77.3014 24.4162C76.1993 22.3551 75.0591 20.2557 74.261 18.1564C74.261 18.1181 74.223 18.1181 74.223 18.08C74.223 16.7441 74.147 15.599 73.919 14.5302C74.299 14.4539 74.6791 14.4157 74.9451 14.4157C78.9356 14.4157 82.1661 11.4002 82.3182 11.2858C88.285 6.05646 87.2209 0.750818 87.1828 0.521799ZM63.3535 7.43058C63.3535 6.85803 63.5435 6.32365 63.8855 5.90378L64.5696 7.6596C64.2656 8.00312 64.0756 8.42299 63.9995 8.88106C63.9995 8.91919 63.9995 8.91919 63.9995 8.95742C63.9995 8.99555 63.9615 9.03369 63.9615 9.07191C63.5815 8.61384 63.3535 8.04129 63.3535 7.43058ZM73.2728 17.622C72.2467 17.1639 71.2966 16.5151 70.4224 15.7898C70.9545 15.37 71.9806 15.0264 72.9688 14.7974C73.1968 15.6371 73.2728 16.5532 73.2728 17.622ZM81.672 10.6751C81.6341 10.7132 78.5936 13.576 74.9451 13.576C74.6031 13.576 73.9949 13.6523 73.2728 13.8049C72.3987 13.9958 71.3726 14.263 70.5365 14.6447C71.2586 12.0109 72.5127 8.61384 73.843 8.07946C73.843 8.07946 74.755 7.69776 75.7432 7.54508C77.6054 7.23972 83.1923 5.56025 86.3087 1.89592C86.3087 3.65174 85.6626 7.12522 81.672 10.6751Z" fill="#FC5E33"/>
</svg>
